<mxfile host="Electron" modified="2023-05-16T20:55:01.563Z" agent="Mozilla/5.0 (Macintosh; Intel Mac OS X 10_15_7) AppleWebKit/537.36 (KHTML, like Gecko) draw.io/21.2.1 Chrome/112.0.5615.87 Electron/24.1.2 Safari/537.36" version="21.2.1" etag="yHeRrMptGLRMOwTgPUb0" type="device">
  <diagram name="Page-0" id="Page-0">
    <mxGraphModel dx="2066" dy="1544" grid="1" gridSize="10" guides="1" tooltips="1" connect="1" arrows="1" fold="1" page="1" pageScale="1" pageWidth="944" pageHeight="751" math="0" shadow="0">
      <root>
        <mxCell id="0" />
        <mxCell id="1" parent="0" />
        <mxCell id="2" style="vsdxID=1;fillColor=none;gradientColor=none;image;aspect=fixed;image=data:image/png,/9j/4AAQSkZJRgABAQAAAQABAAD/2wBDAAgGBgcGBQgHBwcJCQgKDBQNDAsLDBkSEw8UHRofHh0aHBwgJC4nICIsIxwcKDcpLDAxNDQ0Hyc5PTgyPC4zNDL/2wBDAQkJCQwLDBgNDRgyIRwhMjIyMjIyMjIyMjIyMjIyMjIyMjIyMjIyMjIyMjIyMjIyMjIyMjIyMjIyMjIyMjIyMjL/wAARCAJ8AyADASIAAhEBAxEB/8QAHwAAAQUBAQEBAQEAAAAAAAAAAAECAwQFBgcICQoL/8QAtRAAAgEDAwIEAwUFBAQAAAF9AQIDAAQRBRIhMUEGE1FhByJxFDKBkaEII0KxwRVS0fAkM2JyggkKFhcYGRolJicoKSo0NTY3ODk6Q0RFRkdISUpTVFVWV1hZWmNkZWZnaGlqc3R1dnd4eXqDhIWGh4iJipKTlJWWl5iZmqKjpKWmp6ipqrKztLW2t7i5usLDxMXGx8jJytLT1NXW19jZ2uHi4+Tl5ufo6erx8vP09fb3+Pn6/8QAHwEAAwEBAQEBAQEBAQAAAAAAAAECAwQFBgcICQoL/8QAtREAAgECBAQDBAcFBAQAAQJ3AAECAxEEBSExBhJBUQdhcRMiMoEIFEKRobHBCSMzUvAVYnLRChYkNOEl8RcYGRomJygpKjU2Nzg5OkNERUZHSElKU1RVVldYWVpjZGVmZ2hpanN0dXZ3eHl6goOEhYaHiImKkpOUlZaXmJmaoqOkpaanqKmqsrO0tba3uLm6wsPExcbHyMnK0tPU1dbX2Nna4uPk5ebn6Onq8vP09fb3+Pn6/9oADAMBAAIRAxEAPwD3+iiigAooooAKKKKACiiigAooooAKKKKACiiigAooooAKKKKACiiigAooooAKKKKACiiigAooooAKKKKACiiigAooooAKKKKACiiigAooooAKKKKACiiigAooooAKKKKACiiigAooooAKKKKACiiigAooooAKKKKACiiigAooooAKKKKACiiigAooooAKKKKACiiigAooooAKKKKACiiigAooooAKKKKACiiigAooooAKKKKACiiigAooooAKKKKACiiigAooooAKKKKACiiigAooooAKKKKACiiigAooooAKKKKACiiigAooooAKKKKACiiigAooooAKKKKACiiigAooooAKKKKAKmqahFpWl3N/OCY4Iy5VeregHuelZEOma/fQrc32tzWE7jcLWyjiMcf+yzOrFyO5BX2q/wCIdPl1TQbu0tyonZd0RbpvUhlz7ZAqpa+L9Hktwb27i066UYltbxxHIjdxg43fUZBoAk0jUL3+0LnSNV8pruBFljniXas8RJAbbk7WBBBGfQ962q53SZH1jxDcaykUkdjHbi1tmkUqZvm3M4B5C9AM9cE10VABRRRQAUUUUAFFFFABRRRQAUUUUAFFFFABRRRQAUUUUAFFFFABRRRQAUUUUAFFFFABRRRQAUUUUAFFFFABRRRQAUUUUAFFFFABRRRQAUUUUAFFFFABRRRQAUUUUAFFFFABRRRQAUUUUAFFFFABRRRQAUUUUAFFFFABRRRQAUUUUAFFFFABRRRQAUUUUAFFFFABRRRQAUUUUAFFFFABRRRQAUUUUAFFFFABRRRQAUUUUAFFFFABRRRQAUUUUAFIc4OMZ7ZpaKAMEz+Ldx26bomM8Zv5en/fmsHXf+Ekl1fw40+laGZBqD+X/pkjZP2Wfgkw8DGT35A+o7ysLXv+Qz4X/wCwm/8A6R3NADfP8Xf9A3Q//BhL/wDGa5vxt448UeC9GTUZvDNpeRZIlktr1mWH0LAxg4P5V6HUc8EVzBJBPGskUilXRxkMD1BFAHGeB/HD65pEVxr0tjYXtyd8NspZP3Z+7y/DE9flrt6z4NE0y30mHS0sojZQp5ccMi7wq+nOaof8ItDafNo1/eaWR0jhffD/AN+nyoH+7g+9AG/RWB9q8Safxc2NtqcQ/wCWtk3kyfjG5I/J/wAKlt/FekyyiC4mexuD/wAsb1DC3/j3B/A0AbVFICGAIIIPIIpaACiiigAooooAKKKKACiiigAooooAKKKKACiiigAooooAKKKKACiiigAooooAKKKKACiiigAooooAKKKKACiiigAooooAKKKKACiiigAooooAKKKKACiiigAooooAKKKKACiiigAooooAKKKKACiiigAooooAKKKKACiiigAooooAKKKKACiiigAooooAKKKKACiiigAooooAKKKKACiiigAooooAKKKKACiiigAooooAKKKKACua8S31tba54XSaZUb+0Wcg9lNvNGCfQb5EX6sK2tT1GDStPlvLgnZGOFUZZ2PAVR3JOAB71k6doX2u0vLnW4hJeanGFniJyIY8fLEv0zkkdWyaAOhorB0O7uLS5k0HUZGe4t0DW1w55uYegb3Zejfge9b1ABRRRQAVFcW0F3EYriGOaM9VkUMPyNS0UAYB8KWtuS+k3d5pT9cWsmY8+8bgp+maPO8Tad/rra01aEfx2zfZ5v8AvhyVP13L9K36KAMOHxZpbSiG7eXT5z/yzvYzET9CeD+BrbR1kQOjBlIyCDkGmTQQ3ERiniSWM9UdQwP4GsVvCdjE5k0ya60uUnObSTCE+8Zyh/EUAb1FYG7xNp33ks9YhHdD9mn/ACOUY/igp0fizTVkWG/Fxpk7HAS+iMYJ9n5VvwJoA3aKbHJHNGskTq6NyGU5B/GnUAFFFFABRRRQAUUUUAFFFFABRRRQAUUUUAFFFFABRRRQAUUUUAFFFFABRRRQAUUUUAFFFFABRRRQAUUUUAFFFFABRRRQAUUUUAFFFFABRRRQAUUUUAFFFFABRRRQAUUUUAFFFFABRRRQAUUUUAFFFFABRRRQAUUUUAFFFFABRRRQAUUUUAFFFFABRRRQAUUUUAFFFFABRRRQAUUUUAFFFFABRRUU1zb25AmnijJ6b3Az+dAEtISFBJIAHJJoR1kQOjBlIyCDkGlIBBBGQeooA5uwQ+I9VXV50/4l1q5/s6M/8tGxgzkfmF9snvx0lIqhVCqAABgAdqWgDM1vSf7Uto2hcQ39s/nWk+P9XJjHPqpHBHcGnaLqn9qWO+WLyLuJvKubcnPlSDqM9x3B7gitGkCKrMwUAt1IHWgBaKKKACiiigAooooAKKKKACmSxRzRtHKiyRsMMrDIP1FPqveX9pp0BnvbqG3iH8crhR+tAGVJ4S05JGl09rjTJiclrKUxg/VPun6EU3b4m077slnq8I7OPs0/5gFGP4JR/wAJx4W/6GDTf/Ahf8aP+E48Lf8AQwab/wCBC/40AKviyxhcR6nDdaVKTjF5HtQn0Egyh/Bq24poriMSQyJIh6MjAg/iKwn8a+E5EKPr2mMrDBBnUg1iTXngIyGay16z06c/8tLK8EX5qDtP5UAd3RXAHxnHpqlovFOh6tCozsnmEE34MmVP02jPrXNfD34wpe3VzpfiQy24812tL6dCquhJIVzjCkDoelAHslFYH/CceFv+hg03/wACF/xo/wCE48Lf9DBpv/gQv+NAG/RWB/wnHhb/AKGDTf8AwIX/ABo/4Tjwt/0MGm/+BC/40Ab9FYH/AAnHhb/oYNN/8CF/xp0fjPwzNII49e05nbgAXC8/rQBu0UisroGRgykZBByCKWgAooooAKKKKACiiigAooooAKKKKACiiigAooooAKKKKACiiigAooooAKKKKACiiigAooooAKKKKACiiigAooooAKKKKACiiigAooooAKKKKACiiigAooooAKKKKACiiigAooooAKKKKACiiigAooooAKKKKACiiigAooooAKKKKACiiigAooooAKwL3S7DUvFSi/sLa6VLL5fPhVwp39sjit+ijqn/AFsD2seYz30+m6bp8EV7Pp6x2QawhgXAuJ/MIMe3HzYXb8o7MT2q3JeXq2x1i31S7k8+S8Gzz90AVFcrtGMAAqOa9DopNe613uD1dzz2+8Wf2l4Ze4+3Q2M0UoSOW2v8wXL7A20TeXyRk/LgZK4z3prazftreP7Quk1AylTp5XCi28kt5pTHyndj5snB+WvRKKb1A8k0/wAR3X/CPzeZqskoke2Vp49UDxxMwJYPcGPMX3RlQpwSoz83GpoZ1S/l0i4n1LUvNaC5d4BcHY7RSAIGyozkHk4G7rivR6Kd9f67AzyjRdZ1a+tmtrzWNsty9qkqwXbPLFO0n7xBmJRGdobMeSRj05rUm8SXfhq7SGSf7ZCDMipeXeyWXa4wI/kPmPg4C8Z45r0Oii+v9eQW1uIDlQcEZHQ0tFFIAooooAKKKKACuZ8P2sWtM3iC9RZ5pZHFoHGRbxKxUBQejHGSepz6V01c/wCCP+RPsPo//obUAdBRRRQAUUUUAFFFFABRRRQAUUUUAFNkijmjaOVFeNhhlYZBHuKdRQBzunwjQ/E39k2/y6feWz3MEOeIXRlVwvop8xCB2Oa6KsG9/wCR80b/ALB17/6Mtq3qACiiigAooooAKKKKACiiigAooooAKKKKACiiigAooooAKKKKACiiigAooooAKKKKACiiigAooooAKKKKACiiigAooooAKKKKACiiigAooooAKKKKACiiigAooooAKKKKACiiigAooooAKKKKACiiigAooooAKKKKACiiigAooooAKKKKACiiigAooooAKKKKACiiigAooooAKKKKACiiigAooooAKKKKACuf8Ef8ifYfR/8A0Nq6Cuf8Ef8AIn2H0f8A9DagDoKzdZ1mPRobZmtbm6kuZxbxQ24XczkFv4mUAYU960qwvE1jf3a6XPp0EU81lfLcNFLN5YZQjrw2Dz8w7UDVvzIpfGmm2tvDLeRXVo73a2ckUqDdA7AkF8EjbgZ3AkfrixeeJbW0me3S2urm6EwgSCFV3SNt3HBZgMAdyRWR/wAI3f6jerf6jDbqbi9WW4tRJvVIVgki25wNxO/ngdaqjwrqkdndw3UFnqsf2sPCkkrRSNGqgRsJAMpIuMZHX1GaH0/rsD8v63OlXxBaHQLrVyk6RWqSNPCyYkjKA7lIzjIx64PY45qKx8TW1yZxeWtzpZhhFwftxjUGM/x7ldgAO+SKpjRdSk8DajpUrr9quYJ44UeZpBEHBCoZG+ZsZ+8axYPDGtx2d39ms4bNmgjQQyXzXRldXVtwkkU7CACBwQCc44o/r+v6/wAxdDrI/EekzGJob6CW3khkmFzHKrQhUIDEuDjgn9DSt4l0JbBL9ta04WbkhLg3SeWxHUBs4OK5CLwn4gjsrlvMga7kMrqZpRISXaJsE7MbsIw3bcA4OKtaX4U1OO4iuL/y5XF1POTLN5j4kgWMAkKoJyCOg4pa6/18g/z/AKZ1zarpy3cFo1/ai5uF3wwmZd8q+qjOSPcVAPEOim2nuRq9h5EEnlTS/aU2xv8A3WOcA+xrm7Pw3qtpAbAwWcsFzBCslw8hLWzJHs+RdvPIyDkYJNUtM8F6pCIjdEM0MtogaW6Em6OFyxIARcDk4ByeTzVLewLVJs9BR1kRXRgyMAVZTkEeop1FFIDBvf8AkfNG/wCwde/+jLat6sG9/wCR80b/ALB17/6Mtq3qACiiigAooooAKKKKACiiigAooooAKKKKACiiigAooooAKKKKACiiigAooooAKKKKACiiigAooooAKKKKACiiigAooooAKKKKACiiigAooooAKKKKACiiigAooooAKKKKACiiigAooooAKKKKACiiigAooooAKKKKACiiigAooooAKKKKACiiigAooooAKKKKACiiigAooooAKKKKACiiigAooooAKKKKACuf8Ef8ifYfR/8A0Nq6Cuf8E8eErND95DIrD0IkbIoA6CiiigAooooAKKKKACiiigAooooAKKKKAMG9/wCR80b/ALB17/6Mtq3qwbv5vHmk452adebvbdJb4/Pa35VvUAFFFFABRRRQAUUUUAFFFFABRRRQAUUUUAFFFFABRRRQAUUUUAFFFFABRRRQAUUUUAFFFFABRRRQAUUUUAFFFFABRRRQAUUUUAFFFFABRRRQAUUUUAFFFFABRRRQAUUUUAFFFFABRRRQAUUUUAFFFFABRRRQAUUUUAFFFFABRRRQAUUUUAFFFFABRRRQAUUUUAFFFFABRRRQAUUUUAFFFFABRRRQAUUUUAFYEunalpN7PdaMkM9vcuZZ7KZ9mJD1eNsHBPcHjPOa36KAOf8A7X8Q/wDQrn/wPjo/tfxD/wBCuf8AwPjroKKAOf8A7X8Q/wDQrn/wPjo/tfxD/wBCuf8AwPjrekkSGNpJXVEUZZmOAB6k1gt4ma/cxaBZPqJzg3JPl26/8DI+b/gINAEVzr/iC1tpJz4TmkEa7ikV9EWP0HFcfoPxqTxNqj6bpPhTU7i6jRndPMjUKF65JOB6D3NdqPDsuokSeIL03w6iziBjtl+q5zJ/wIkewp3h3wjpfhmfUp7GL99qFy1xK5AyMnIQY6KOwoA4bRfjbH4g1saPpvhTVJb/ACQ0TSRrswcEsSeAO9dv/a/iH/oVz/4Hx1Uf4e6DL4l1DW5LYGW+iRZEX5drqSfNVhhlfpyCOlWfs+v6Lzazf2zZj/ljcsEuEH+zJ91/+BAHjqTQA7+1/EP/AEK5/wDA+Oj+1/EP/Qrn/wAD46t6Z4h0/U5jbI7wXqjL2lwvlyr/AMBPUe4yPetWgDn/AO1/EP8A0K5/8D46P7V8Rv8AKvhpY2PRpL9No+uATXQUUAZOk6VNbTz6hqEyT6jchVkdBhI0GdsaA87QSTk8kkmtaiigAooooAKKKKACiiigAooooAKKKKACiiigAooooAKKKKACiiigAooooAKKKKACiiigAooooAKKKKACiiigAooooAKKKKACiiigAooooAKKKKACiiigAooooAKKKKACiiigAooooAKKKKACiiigAooooAKKKKACiiigAooooAKKKKACiiigAooooAKKKKACiiigAooooAKKKKACiiigAooooAKKKKACiiigAoqC8vbXT7Zri8uIoIV6vIwUfT61i/21qWq/LodhthP/AC/XwKR49VT7z/8Ajo96ANy4uYLS3ee5mjhhQZaSRgqqPcmsP/hIbrUzs0Cwa4Xp9sucxQD3HG5/wGPepbfwxbtOl1q08mq3anKvc48uM/7EY+VfryfUmtwAAYHAoAwY/DS3ciz67dPqkwO5YnXZbxn/AGYhwfqxY+4rdVVRQqgBRwABgClooAKKKKACiiigCjqWj6fq8IivrVJgpyjdHQ+qsOVPuCDWX9n1/RebSb+2bIf8sLlglyg/2ZPuv/wLB/2jXRUUAZWm+IdP1OY2yO8F6oy9pcL5cq/8BPUe4yK1ao6lo+n6vCI761SYKcox4ZD6qw5U+4NZf2bX9E5tJv7Zsh/ywuXCXKD/AGZOj/RsH1Y0AdFRWVpviHT9TmNsjvBeKMvaXCmOVf8AgJ6j3GRWrQAUUUUAFFFFABRRRQAUUUUAFFFFABRRRQAUUUUAFFFFABRRRQAUUUUAFFFFABRRRQAUUUUAFFFFABRRRQAUUUUAFFFFABRRRQAUUUUAFFFFABRRRQAUUUUAFFFFABRRRQAUUUUAFFFFABRRRQAUUUUAFFFFABRRRQAUUUUAFFFFABRRRQAUUUUAFFFFABRRRQAUUUUAFFFYd7qF9e6nJpWjtFE8Kq11dyoXWHPIRVyNzkc8nAGM56UAblFYP9haseT4t1QH/Zt7XH/omj+wdW/6G7Vf+/Fp/wDGaAN6isH+wdW/6G7Vf+/Fp/8AGaP7B1b/AKG7Vf8Avxaf/GaAN6isH+wdW/6G7Vf+/Fp/8Zo/sHVf+hu1X/vxaf8AxmgCpqnj7RdI8WW3h64nH2mWF5pWDDEAAyA3fLc4A5/OrH9p6zq/y6TZCytj/wAvt+hyR6pDkE/Vio+tcc3wN0dtcOtnxF4g/tMy+d9p8+Lfv9c+XXZjQdVAA/4S7VuPWC0/+M0AS2fhmyhuVvLx5dRvh0uLwhyv+4oAVB7KBW1WD/YOrf8AQ3ar/wB+LT/4zR/YOrf9Ddqv/fi0/wDjNAG9RWD/AGDq3/Q3ar/34tP/AIzR/YWrDkeLdUJ7Bre1I/HEI/nQBvUViafqN7bamukauYnnkQyW11CpRZ1X7wKkna4yMjJBzkeg26ACiiigAooooAKKzNZ1VtOSCG2hFxf3T+XbQltoJxksx7KACSf8apjRtcmAe48U3UUh6pZ2sCxj6CRHb82oA36Kwf7B1b/obtV/78Wn/wAZo/sHVv8AobtV/wC/Fp/8ZoA0NS0fT9XhEd9apMFOUY8Mh9VYcg+4rL+za/onNnMdZsh/y73LhblB/sydH+j4P+0ak/sHVv8AobtV/wC/Fp/8Zo/sHVv+hu1X/vxaf/GaAMnUviZoulX+l2t4s1u17cGCUXCmNrY4yCwPYnAyOO+a7TORkV5r4i+DOm+LNQF7rfiLXbqdV2rmSFVQeiqI8D8K6PT/AAnf6Zp8FjbeLtZ8iBBHH5kds7BR0BZoST+NAHT0Vg/2Dq3/AEN2q/8Afi0/+M0f2Dq3/Q3ar/34tP8A4zQBvUVg/wBg6t/0N2q/9+LT/wCM0f2Dq3/Q3ar/AN+LT/4zQBvUVg/2Dq3/AEN2q/8Afi0/+M1FNc6r4c2z6hejUtLLBZZniWOa3ycbzsAV16ZwAR15oA6OigHIyOlFABRRRQAUUUUAFFFFABRRRQAUUUUAFFFFABRRRQAUUUUAFFFFABRRRQAUUUUAFFFFABRRRQAUUUUAFFFFABRRRQAUUUUAFFFFABRRRQAUUUUAFFFFABRRRQAUUUUAFFFFABRRRQAUUUUAFFFFABRRRQAUUUUAFFFFABRRRQAUUUUAFc/4Y5m15jyf7UlGfYKmK6Cuf8Lf6zXf+wrL/wCgpQB0FFFFABVXU7z+ztKvL7y/M+zQPNszjdtUnGe3SrVVNUs/7R0m8sRJ5ZuYHh34zt3KRnHfrQxxtdX2MS38ZW0thZ3c1s8CywSy3KM2WtmjXc6kAcn+fB700eKNQiXzbzSIYYZLaS4hVL3fKAqlgJU2AJkDGQzgHj3pZvBlvPqaXLXLiB7N7a5t1XAlJQJ5gOflbaMe+B6VXk8H3t5LH9u1G0lW3gkgt5ksQs5DIUHmPuOQAxOFC5P5U3bp/W4ob+9/W3/BJV8aJ9su7eWxaPyrFbuFzJlZm2F2j6cEDB75GT2qWXxY0U8Fq2n/AOl3scclhEJeLgEAvk7fl2ck8HjB74EV54MW80q+tDemOWeGJIZ0j+aF0j2bhzznnj0JFPPhOaQi4l1Em9t1jSwlWPC2yqBn5c/NuOd3PIwOMUf5/gHTzOnHTnrRSLu2jcQWxyQMDNLSAKKKKAMHxDxqvhphwTqZXPsbec4/QflW9WB4i/5Cfhn/ALCh/wDSaet+gAooooAKKKKAMG558faap5A0y6YD0PmQDP5E/nW9WDcf8lA07/sF3X/o23reoAKKKKACuWPjNFfXI3sWSXTHwgMnFwgwCwOOME4I57etdTXKal4LXULO6jF8YbiW8a5jmWPOxW27oyM8ghfbnB7U1vqD+F23JbzxRdRzXb2emwz2NlL5M8st35UjuACyxJsIcgHuy5PA9aZe+M0sbkLJYOYFv2tJpRJ/qkEYYykY6DcAR2GTnim6p4RuL1b61t7y1XT7+QyzxXNn5zxuwwzRMWAUkf3lbB/KrUHhZIrwyvcLLEbmSYxNH95WiEe08+2enfpU62+79Lj0GXHi2OzF1cXVsItPtLtra4uvMz5Y2KyuVx90lsHnjjrnjZ026nvbCK5uLU2ryAsImbLKufl3cDBxgkdjxk1zdl4H+zwvY3OotdaY909w9u8eGkG1VjRmzyqhfTnAz056LSrOewsEtZ7o3PlErHIy4bZ/CGOTkgcZ71WgnvoXaKKKQBWZ4jAPhjVQRkfY5f8A0A1p1m+Iv+RZ1X/rzm/9ANAEujsW0SwZjkm2jJP/AAEVdqjov/IC0/8A69o//QRV6gAooooAKKKKACiiigAooooAKKKKACiiigAooooAKKKKACiiigAooooAKKKKACiiigAooooAKKKKACiiigAooooAKKKKACiiigAooooAKKKKACiiigAooooAKKKKACiiigAooooAKKKKACiiigAooooAKKKKACiiigAooooAKKKKACuf8Lf6zXf+wrL/AOgpXQVz/hb/AFmu/wDYVl/9BSgDoK8u8Qw3Mmt6/dLaK0cEsCfbjfSo1kCo/eCJVIZVPzHke/GTXqNRNbQMJQ0MZEwxKCg+cYx83rxxzS6pgcO3iLXJfF8tjCfLtVufsa7mtwhBiDiQZfzC+T0ClSKgl8X6xdaSlzbKULTQ2MogEReKfBM2DIwTIICjccda6W+1Pw7pOrK1zFGl7HEFaeOzZzBGem+RVIjXr94gcGriSaNfwXtoFtJYI5jHdRPGNhkIDnIIwSdwOeaYM5G11/X7y0knN7bW7QWIcqxhKySGV0DFwzKCQoOA2NxwTjNQah4o1u30+0gt5Lp5yLh5Z5I7VHVo9pCPukERGG5KMTgcYOcdoJ9HW4k0tIoTIkUcTwJASFjbcEBwMbflb2Htmpv7L0mW0Sy+wWT20DApB5KlI2HOQuMA0Wdv67ht/Xkc14sa51DRNBAgjlluruHfAbpokfKkkF03HH0zUVtDrOiT2dkksdtFKbi6a0hc3AVUCYjWRwCckkk4H3sDpXZP9mlAZ/KcRNuycHYR39jSsbcvHKxj3YIRzjOD1wfypWetuv8AwP8AIVtVf+t/8zhbPxPqiwySNqMF87WsN4kSxhSHdiv2f5c9ccHlsg9RWiNdv47mytmuYpG1GNGgcIMIVYmcf8BTGM966OOx06zLvFa2sBaTzXZY1XLkY3H37Z61H/Ztl/aaXeB5yRsiRhvlG45ZtvqeMmmhkHh5pJtOe8kLk3UzzKHOdqk4UD2wB+da1IiLGgRFCqowABgAUtAGB4i/5Cfhn/sKH/0mnrfrA8Rf8hPwz/2FD/6TT1v0AFFFFABRRRQBg3H/ACUDTv8AsF3X/o23rerBuP8AkoGnf9gu6/8ARtvW9QBxvjW3nvNW0G2htEvN7TsbeS7e3V8R5GWUHkdhj8q5/wDt7V9O0TTbawMkZkW6mcK8TG2aN1AgZrhkBVdxyfvcDHFentFG8iSNGrOmdjEZK564PasrWf7Ds7VTqdpBIks+5IhaGd5JcE5VFUszYBOQCcAnpSWgIwU8Uaq199iKQ/aRCL8opDZt/JyQCOv70hQeeAay9K8SeItRS3ge5MDXU1uRNItszoJFdmVVjduBtG0sAfXNdrZ6zo99dwNbzRtc3ET7MxlZNsZAZTkAqQWHynB56daTOh6W0Cxw2kBu7gmMQwj95NtZiflH3tqtz+Heq/r8Qtf+v6/r0OUuPE2sWVvq8zTm5lQf6OkaQtEF80IXRw2flByRLt5B5wDWnpep6he+E9Za+dvOtxNGkjPD5hATI3eS7KGGexHbiugt7XTCZJobS3je9XdLmEI8wI/jBAJ49algtbK0gWxt4LeGHBAgjRVXB6/KOKiUW4teVhp2d/M8802x1bSPD0esW0Ntp7NZRKGW8kuvPdygDOHUBcZJ4z1rUn1rVLXW/szaqhWG5hsjA8KB5w6bjNx0IOcAYX5TkV2JW1aAxEQmFMKU42rjoMdsUx7KwuLlbqS1tpJ9hjWZo1LbT1XPXB9KqV3K62JirRt1OVXxPeRWEmp3M8QtbSVBMqp/rICCPPGQDhjggDIwOprU0iW8vNWD3bnfbWaCVV4TzJDuIx6qqqPo1X77T9P1G3VZiojDKCY2C7gpyEJHVc44q+saIWZUVSxyxAxk4xz+FAx1ZviL/kWdV/685v8A0A1pVm+Iv+RZ1X/rzm/9ANAEmi/8gLT/APr2j/8AQRV6qOi/8gLT/wDr2j/9BFXqACiiigAooooAKKKKACiiigAooooAKKKKACiiigAooooAKKKKACiiigAooooAKKKKACiiigAooooAKKKKACiiigAooooAKKKKACiiigAooooAKKKKACiiigAooooAKKKKACiiigAooooAKKKKACiiigAooooAKKKKACiiigAooooAK5/wt/rNd/7Csv8A6CldBXMxXMXhvWr6O/dYbDUJxPBdPwiykANG7dFJwCM9c460AdNRTBLGyhlkQg8ghhzS+Yn99fzoA4zxPpd/LqNzPp+m3hup4BHHc2s8YifGcLcpIeUBP8KsSCR7Vkan4Y1Brm/hh0CB4rnUPOeVYIHDAwIoYI7AEBw+SwyM5UHJr0rzE/vr+dHmJ/fX86Olh8x5xZeF9Si1HTp30rbOINP866zGSGiDiQMc5JGU9QcdeK6Dwnp0thA8U2iGyulhWO4uzIn+lyDOX+Uktnk7mw3PSun8xP76/nR5if31/OqlJy3F0S7HmjeF9UbRb63ttNe3UzwOyPHAZbhUYllOG2SjHeTaWyc1c0rwZJMtkmoWbCKOyu44/PERNs0kiFAFT5VIUHG3IXpmu/8AMT++v50eYn99fzqVp/XlYOljza88M63d6JbXF5ZvJdG63XdoohnLosZij+WQhG6BsEjBJI5Fb/hPw9LplzLc3ttm5FtBDHPKVeQAJ8y5HTng44OB1xXVeYn99fzo8xP76/nQKw6im+Yn99fzpGmiRSzSIqjkksABQMw/EX/IT8M/9hQ/+k09b9c19pj8R6/YvYsJdO02R5nuV5SSYoyBUPRsBnyRxnA65rpaACiiigAooooAwbj/AJKBp3/YLuv/AEbb1vVg64stjqdhrkUTzRWySQXKRqWcQvtJZQOuGRSR1xmtWz1Gy1C2W4s7uC4hYZV4pAwP4igCzWD4psWvLS2ZbC4uzBN5gNpMIriJtpAeMsQuecEE4wT16Hc8xP76/nR5if31/OgDzebQNZZIbw6Kt1efZb6KJrgxeam8oY/NZSMsQrglSfvcnBJqGy8KX8ccDy6GGSPUhPFGYbaMxI1uyFtiNsXDlSdpzwDyRXp3mJ/fX86PMT++v51XN/XzuO5w+h6Ld2N9YfbtCNxMlvbLFdmSPFnsjCuuc7hznhQQ2eTVq+0e7l8bx30GnsQUAN3II2VBtI+VsiRDz90AqeprrvMT++v50eYn99fzpSfM7sR5ZpPgvU10+a1vLKVt32SO4EggRLkpMrO/yEmTgHLPhiDjFbV34W1J7zV7WzQW9kIJJNPkWQKEmlQIyhR90LtyD/tmu58xP76/nR5if31/Ohu6sHW551oXhK4FzbPeaY6WiXYlNvPFbxqhWMjeI4iVGSRzkkkA4Fej03zE/vr+dHmJ/fX86QkrDqzfEX/Is6r/ANec3/oBrQ8xP76/nXP+INTjvLefQtNkjuNRukMTIh3CBG4Z5MfdAGcZ5J4FAzU0X/kBaf8A9e0f/oIq9UVtAtraw26Z2RIEXPoBipaACiiigAooooAKKKKACiiigAooooAKKKKACiiigAooooAKKKKACiiigAooooAKKKKACiiigAooooAKKKKACiiigAooooAKKKKACiiigAooooAKKKKACiiigAooooAKKKKACiiigAooooAKKKKACiiigAooooAKKKKACiiigAooooAKbJGk0bRyorowwysMgj3FOooAxD4N8LsSW8N6OSepNjF/8TSf8IX4V/6FrRv/AAAi/wDia3KKAMP/AIQvwr/0LWjf+AEX/wATR/whfhX/AKFrRv8AwAi/+JrcooAw/wDhC/Cv/QtaN/4ARf8AxNZviLwh4Zh8MatLF4d0hJEs5mV1sowVIQ4IO3g111ZXib/kVNY/68Z//QDQBnab4O8Lvpdo7+G9HZmhQkmxiJJ2j/Zq1/whfhX/AKFrRv8AwAi/+JrR0v8A5BFl/wBcE/8AQRVugDD/AOEL8K/9C1o3/gBF/wDE0f8ACF+Ff+ha0b/wAi/+JrcooAw/+EL8K/8AQtaN/wCAEX/xNKvg3wujBl8N6OGHIIsYsj/x2tuigBqIkSKkaqiKMBVGABTqKKACiiigAooooAKybrwv4fvp2nu9C0y4mb70ktpG7H6kjNa1FAGH/wAIX4V/6FrRv/ACL/4mj/hC/Cv/AELWjf8AgBF/8TW5RQBh/wDCF+Ff+ha0b/wAi/8AiaP+EL8K/wDQtaN/4ARf/E1uUUAYf/CF+Ff+ha0b/wAAIv8A4msTw74S8NzXGuCXw9pLiPUnRA1lGdq+XGcD5eByfzrt6wfDX/Hzr/8A2FH/APRcdADv+EL8K/8AQtaN/wCAEX/xNH/CF+Ff+ha0b/wAi/8Aia3KKAMP/hC/Cv8A0LWjf+AEX/xNH/CF+Ff+ha0b/wAAIv8A4mtyigDD/wCEL8K/9C1o3/gBF/8AE1p2Wn2WmweRY2lvaw5z5cEYRfyAqzRQAUUUUAFFFFABRRRQAUUUUAFFFFABRRRQAUUUUAFFFFABRRRQAUUUUAFFFFABRRRQAUUUUAFFFFABRRRQAUUUUAFFFFABRRRQAUUUUAFFFFABRRRQAUUUUAFFFFABRRRQAUUUUAFFFFAGP4qmlt/CWrTQyPFKlpIVdGKsp2nkEdDVePwjphjUmfWMkD/mM3f/AMdpnja/tIPDGpWktzDHcz2UxiidwGkAXnA74yK2bG9tL2JvslzDOIm8uTynDbWHUHHQ0AZf/CIaX/z31j/wc3f/AMdo/wCEQ0v/AJ76x/4Obv8A+O1vUUAYP/CIaX/z31j/AMHN3/8AHaP+EQ0v/nvrH/g5u/8A47W9RQBg/wDCIaX/AM99Y/8ABzd//HaP+EQ0v/nvrH/g5u//AI7W9RQBg/8ACIaX/wA99Y/8HN3/APHaP+EQ0v8A576x/wCDm7/+O1vUUAYP/CIaX/z31j/wc3f/AMdo/wCEQ0v/AJ76x/4Obv8A+O1vUUAYP/CIaX/z31j/AMHN3/8AHaP+EQ0v/nvrH/g5u/8A47W9RQBg/wDCIaX/AM99Y/8ABzd//HaP+EQ0v/nvrH/g5u//AI7W9RQBg/8ACIaX/wA99Y/8HN3/APHaP+EQ0v8A576x/wCDm7/+O1vUUAYP/CIaX/z31j/wc3f/AMdo/wCEQ0v/AJ76x/4Obv8A+O1vUUAYP/CIaX/z31j/AMHN3/8AHazfEPhTTYfDOrSLNqxZLOZgG1e7YHCHqDLgj2NdhXH/ABJ8TW/hnwrcPeW1w9teRS2xmiUMIXZG27h1wTxmgCxp3h69fS7Rh4p1pQYUOALbA+Uf9Mas/wDCO3v/AENet/lbf/Gar+BPE9v4q8PJeWVtcR2cREEcsyhfOKqAzKPQHI57g109AGB/wjt7/wBDXrf5W3/xmj/hHb3/AKGvW/ytv/jNb9FAGB/wjt7/ANDXrf5W3/xmj/hHb3/oa9b/ACtv/jNb9FAGB/wjt7/0Net/lbf/ABmj/hHb3/oa9b/K2/8AjNb9FAGB/wAI7e/9DXrf5W3/AMZo/wCEdvf+hr1v8rb/AOM1v0UAYH/CO3v/AENet/lbf/GaP+Edvf8Aoa9b/K2/+M1v0UAYH/CO3v8A0Net/lbf/GaP+Edvf+hr1v8AK2/+M1v0UAYH/CO3v/Q163+Vt/8AGaP+Edvf+hr1v8rb/wCM1v0UAYH/AAjt7/0Net/lbf8Axmj/AIR29/6GvW/ytv8A4zW/RQBgf8I7e/8AQ163+Vt/8Zqlp/hC/s5b5z4p1YfaLkzDyxb85VR82Yuvy9sDpXWUUAcf4g03U9J8N6pqVv4p1hprSzlnjWRbYqWRCwBAhHGRXXqcoCe4rh/in4ot/DnhG8hvLa4aDUbWe1W4iUMscjRkIG78nv7VteEfFFv4u0c6nZWtxFZGVo4JJ1CmYLwXA7DORz6GgDfooooAKKKKACiiigAooooAKKKKACiiigAooooAKKKKACiiigAooooAKKKKACiiigAooooAKKKKACiiigAooooAKKKKACiiigAooooAKKKKACiiigAooooAKKKKACiiigAooooAa7rGjO7BUUEszHAA9TWD/wAJdaSfNZ2Op30WcCa2tGZD9CcZ+opPEai91DR9Ikz9mu53ade0ixqW2H2Jxn6V0CqFUKoAAGAB2oAwP+EqH/QB1z/wD/8Ar0f8JUP+gDrn/gH/APXroKKAOf8A+EqH/QB1z/wD/wDr0f8ACVD/AKAOuf8AgH/9eugooA8o+KNkfHHhRrW10HWV1O3cS2jtabRu6MpOeAR+oFbPg2WDwl4VsdHh0HWy0KZmcWX35DyzdfWu+ooA5/8A4Sof9AHXP/AP/wCvR/wlQ/6AOuf+Af8A9eugooA5/wD4Sof9AHXP/AP/AOvR/wAJUP8AoA65/wCAf/166CigDn/+EqH/AEAdc/8AAP8A+vViy8S2N3dpaSR3VldSf6uK8hMRf/dJ4J9s5rYqjq+mRavpk1nL8pYZjkH3onH3XX0IODQBeorM8O38mq+GtM1CX/WXNrHK31ZQTWnQAUUUUAFFFFABWTqetNa3SWFjaPe6g67/ACVYKsadNzseFH6nsK1q5/w1iW+1+5YZlbUWiLf7KIoUfhk/nQAvneLu1homPe9l/wDjVHneL/8Anw0P/wADZf8A41W/RQBged4v/wCfDQ//AANl/wDjVHneL/8Anw0P/wADZf8A41W/RQBged4v/wCfDQ//AANl/wDjVZniHSPEfiXQbzR77T9EMF1GUJF7LlT2YfuuoPNdlRQByOiad4k0DRLPSrHTdDW2tYhGn+my5OO5/ddSeT9av+d4v/58ND/8DZf/AI1W/RQBged4v/58ND/8DZf/AI1R53i//nw0P/wNl/8AjVb9FAGB53i//nw0P/wNl/8AjVHn+LhydP0Qj0F7Ln/0VW/RQBlaXrJvbiSyu7V7LUIlDtA7BgyngMjDhl/l3xWrWBr4EWueG7hRiVr57ct/sNBIxH5xqfwrfoAKKKKACiiigAooooAyNR1p7e8Gn6faNfX5UO0YYIkSngM7HpnBwOScHiq/neLu1hon/gbL/wDGqTwqBImrXTDM02p3Cu3chHMaj8FQCtXUdRt9KsmurpmCAhQqKWZ2JwqqBySSQAKAMvzvF/8Az4aH/wCBsv8A8ao87xf/AM+Gh/8AgbL/APGquWuv6fcWc1zJKbNYGCzLeDyWiJ6bg3TORj1zVp9RsY3iR7y3VpsCINKoL56beec9sUAZPneL/wDnw0P/AMDZf/jVHneL/wDnw0P/AMDZf/jVakeqafNLPFHfWzyQf65FmUmP/eGePxp899aWsUktxdQRRxECR5JAoQnpknpQByPifQ/EXivw9d6Nf2GiCG4XG9byXcjDkMP3XUGrelWXiXRtJtNNstM0OO2tYlijX7bL0Axz+6610lxeWtpb/aLm5hhg4/eSOFXnpyeKQ31oLpbU3UAuGBIi8wbyB1469xQBked4v/58ND/8DZf/AI1R53i//nw0P/wNl/8AjVas+pWFrEJbi9toYyAweSVVGD0OSabHq+mTGARajaObgkQ7Z1PmEddvPOPagDM87xf/AM+Gh/8AgbL/APGqPO8X/wDPhof/AIGy/wDxqtSLVdOnuZLaG/tZJ4s+ZEkylkx1yAcjFQz6zapp4vLUm/jLbVFmyyM2Ou0A847gUAURP4uHJ0/RSB2W9lyfziq3pWsC/lltbi2ks7+ABpbaQgnaejKw4ZTjqPocVoQTLcQRzJja6hhgg/yrE1oCLxL4buEGJJLma2ZvWNoJJCP++okP4UAb9FFFABRRRQAUUUUAFFFFABRRRQAUUUUAFFFFABRRRQAUUUUAFFFFABRRRQAUUUUAFFFFABRRRQAUUUUAFFFFABRRRQAUUUUAFFFFABRRRQAUUUUAFFFFAHP6x/yNvhv/AHrn/wBFV0Fc/rH/ACNvhv8A3rn/ANFV0FABRWHqGs3y6q+naTp0V5PBCs9wZrgwqqsSFVSFbcx2txwOOSM04eKNPW7t7SZbiKeUIGDQtthd/upIwGFY9gT6etAG1RXPQ+NdGuLaa4je5MccRlB+yyAyqG2nyxj58MQDjOCRU6+KtK+ySXEsssCxRySyLPCyMioVDZUjIPzLx3zxQHWxtUVlR+ItPlv4bOMzu8qqd6wMUQsu5VZsYViMHB55FF34gsrO/wDsTrcySgfMYbd5FQkZCsyggMewPXI9aNgNWiubTxvpLwJJ5OpL5kjRRI1hKHkZQSwVduTjBz9DVxvFGkLbJcG6/dSNCqEI3zGU4QAY/P0wc9KNwNiisUeK9HItv9JbNzeNZRL5bZMq5yMY4HHXp09aiXxlo7rcFHuX8nBAW2cmYF9mYxj5xuIGVzQBv0VU03UoNUtftFuJVAYoyTRmN0YdQytyD/jVugDB8Ef8iJoP/XhD/wCgCt6uE0nxhofhf4f+H21S+RJnsIBFbp88spKDAVBySa7lXDRhyCoIzhuCPrQA6isS28V6XdXHlIblVZXaKaS3dI5goydjkYbgE8dgTVZPHGjtbSXDrfQxJbtchprKVPMjBAJTK/N95eB60BY6SisOPxZpj208zi7haFkVoJrV0lYv9wKhGWycgYHUH0preMtCiVPtN4bWRhnyriJ43XnHKkZFAG9XGafqkunyapBa2wub271qaKCNn2JkIrFmbBwoAPQHsMc1i618aNE0DxPHYXi+dps8QeO9tiXKHJBDoQD26jP0rU0K2j8QW19qOm3oili1eW4tLgxl0IMaghkypKkE5GQehyMUmBtP4lOn2q/2xYzQ3hdlEForXHmKoBLphQSoBGSQMHt0y7/hL9HN/HaJNJIX8o+akTGJRKMxlnxgbu3vis3VfBdxrMVvNf6ha3V/E8hD3FlvgVXABVYt4IxtBBLnnOc9BHB4Pu11KaH7UkWkgWf7tYVDSmAZG0qQIxuC5G05HAxVK3UT8jWtfFumXTMoF1Ecrs863dPMDOEDLkcjJHPvSyeLdJSF5Y3nnCzvAVggZ2yn3zgDJUZ69KwoPh7LDBdRJqlvb+dtAktLIxucSB9zlpGDNgEAgDGc47Vpt4UmtphPpOoR2cyu+wvbeYqRsqKVA3DkbAQenqDUx2V9/wDhv+CDvzabf8P/AMA1tS1i30y2jnkiuZ/NPyJbQNK54znaozjFUR4v0tp4o0F06SqhWZbZzGS67lXdjG4gjj3FJ4j8Nvr9vZRNeIFgctIk8HmpMCuOVDL8w6g9AexrJs/ALWeo2Fyt9asLVIEL/YiJz5a7cK/mYUHHI2nqeaf+f4a/8AZoR+ONLkt3lFtqYKzGBYzYyB5JBncqrjLFdrZx0xUzeM9FE8MSzSyCSOKXzI4WZESQkKztjCjKkc9Khm8LTrHHJZaikN7DfT3kMstv5iDzd25WQMCeHPIYcgH2rMi8E3cd1LZpfbNKeztreYtHuebY8jNtIYbDlhyQwweOmaasErLY6B/FGlJIkfnSNI9vJcKiRMzFEYKeAOuTgDvzjpUM3i7TYLKO7aO9MbBi4W1dmhCnDGQAfJjvmq1p4SlsA0ttqX+mETYmkgDAbyu0bcj5VC4xnJyTkGsu7+HTXlhBaS6lbmNUlVlNmSkZdt26FTJ+7I6fNv4qdbAdZ/bFljPmNjz/ALPkKfv4zj8h1qsnifSnuUt1nYyvHDIB5Z4WVtqZ44ye3asq88P63HOj2d9ZS2v26O4aB7RhJg4V/wB55uOFLMPl7YqMeA9umx2q6tKsoEQkuBEN77JA5xzgZA2j06804769/wDIHtoTahqlpq134dnspfMiTWXiLYI+ZbecHGeo966uuJ1yKy8LJo1xPOsdlHq7zsQhAjT7LMMYGc4xWVoPxm0TxD4iuLS2At9MtotzXlySrSuThQiAHjrySD7UCV+p6XRXOTeOvD6Qu0N+lxKB8kMYO6RuyjOBknjmq9x4q1DTrTUGv9OsluLWATKkF/5i8kDbISgKHkH7pGM80rlWOroriZvHN3bxyI9npTziaCNZItTLW+JN3LSeVlSNnTaeoq3a+LLy/SO2s9PtJtSaWVCovT9m2x7cuJQhJHzKOE+9kds0xHV0Vgv4u0qzIg1S5jsr1QPNt2YsUJGeoGCMc/jXH6p8atD0TxWdMv136dLGskF/bEvjPBDpgEYIPIzxjigDr/CX/HjqP/YVvf8A0e9WPENldXVrbT2UazXFncpcpCzBRLjIK5PAOCcE8ZxWFomqCPwtfXllIrG41a5SByOMyXDKpx+NX28Wwwzx2hEclyJ5oZEadVcCNGbeRgYDbR6AZ60efb9AM7XdP13XrO3uWsJLM214JVtIpIGnkTy2TLFw0ROWyAc8DrnFYn/CNagsraZHppkmfSYrcXMsqMbRjLI27cAoO3IPyDIIAHGDWxb+OtQvdPuriz03TZ3tp4on26g/lkSbQpDeTkkFuRjHoTWhJ4rvLe8KT6XELWOZbWaaO5LFZ2XICqUGUzhdxIOT93FCkk7A9V/Xqc8/hrXfN1XyrF3LQXaxGd4FjZnYFAhQb+ccmTOO1aJ8O6jZXTXhsl1Em5FxPAHQeexjKkjfgfKTgA44FanhPxU/iWKZ3gtYyiI4NtcNKuGGcEsiEMPYEe9SaZ4pGp6tDYpZlQ0UjvL5mQjK+3b05JHPtTs7KP8AXf8AQmVr3f8AXT9SPWbC5m8MW9rDo6tKECCG1eIm2O3HyeauwgdOQODxXP2OiahJrMsR0yJZI7m2eW/DcL5cKgqu47zkkgHkYJya3p/F/lvqgSy8xdPcxSES4LSEqI1GR3Lcnt71EfE+rmY2UekWf9oxyOsySXzCIKEDhlcREtkN0KjkH8Zfn6lLXbzRmWnhLUjo9x9ttoHvbjRmtCm8MqMABGgJ7Dk59Sai1TwhqEmsW0tvDObdoLZCtvJbxpC0TFmLF0ZhnP8Ayz698da2o/GXmfY0SwLTXMkKlFl+4joGLE46AsB71Bc/EC0gs45ljhdmtVmZRcf6qRnVQj4BK4LHJxng8VXNr6P/ADDmvHy/zt/kV7nwvfXmieXFbpZ3kyXZdwU3qZHLKCwyDxx3H1qpY+FtYAiPkzQLPeM1wbmaDekXkeWSFhRUBPAAGeOSR0rXs/GFzqdrbLYabDNfyNLuia5KxFYyAzJIUy2dy7cqM55xTb7xXq+nvqrXGlaekFhEkhc375O8nbkCHA6c4Jx2zU2Tv5iT5Ubvh+xfTNAsbJ41jaCIJsU5C47VT17/AJDnhf8A7CMn/pJcVi3XxAe20eG9Ntp+9mlDBr8hGCY/1Z8vcxOe6qPUjjOrqs4udS8I3Cgqst8zgHqM2c5qm29QVtjo6KKKQwooooAKKKKACiiigAooooAKKKKACiiigAooooAKKKKACiiigAooooAKKKKACiiigAooooAKKKKACiiigAooooAKKKKACiiigAooooAKKKKACiiigDn9Y/5G3w3/AL1z/wCiq6Cuf1j/AJG3w3/vXP8A6KroKAMPUNGv21V9R0nUYrOeeFYLgT2xmVlUkqygMuGG5ueRzyDgVmSeBIm16LU/tMMrZieZrm38yZ3jUKCr7gFyFGflPsRXX0UBc4Kz8EahdeHktdTvYFlSye1gi8gssQd1Zt5D/vPuKBjbxnqeat2vgV4zB5+oRGOMTZt7e2McWX2FcBnYgKU3Yyck546V2VFNu4PV3MCx0C903UPMttTRbOTy2uIjbZd2RAnyvuwqkKCRtJ64IqQaLeQa/Pf2eoRw2106SXULW+52KLtAV92FBAGcqT1wR226KLsDlLrw7qcMmljTbyJHt7i4meaWHeoEgPBTcCfvdiOQD04pIfBCRSK39oSOI4olRXjHDq4ZnPPJbGPbNdZRUpJbf10D+v1OTj8FCO/juTf5RJhOI/J6NvZmIOe4IH/Ac1Xk8CzzWDWcupwywwwiCzR7Q7UjEgfEmHBc/KFyCnHvzXaUUWQGT4d0Z9D0w2jzRSEyNIBDEY40z/CqlmIHfljyT9K1qKKd7geNx/B/RvFPhXQdYtpXsdXFlbyebzJFIwUEB0J6fQivQT4F8OvAVfSrdZGXBZMjBx1HNS+CP+RE0H/rwh/9AFb1Jq6sGxx6aBr0l1aJPPbx21nC8IeK6lIuBsZV3QFQqH5sltzHjHfjOn8AXy6V9lgvjO0untZyfa7qRhAxwd0JwcA4AI44CkYwQfQaKa0dx3OZn8KC1hjuNMkeXUYrhLhXv7mSTzNqldhc5KrhmxgHBOcGtjTF1Ly5ZNTaASyPlYYGLJEMYwHKqW9ckDr0q9RQIwbrwdol/wCIhrt/Zi7vkRY4jcHekIH9xTwDkk5pvhbiTXR/1FZf/QUroK5/wt/rNd/7Csv/AKClAGjrN+dM0ma8XZ+7K5Mn3QCwBJ/A1m6dr91e6dq948Eca2xZrUc5aPywyl/c9cDsR3rbu7O3v7SS1u4Umt5RteNxlWHoRSfY7bbOvkptn/1ox9/jHP4cVElJ3sxprS5yR1/Xrcx2k0umy3d1JbpBMlrIkcXmBydy+YS2NnGGXOaifxPrk9iZrZtOiktoLh7nfbvIsrwymM7CJF2g4J53Yz3rqrrRdNvYJILmyikjkVVZSOoX7v5dqZDoGk26MkNhCitALYqF4MY6L9OTWl1cT2stzOtPFAuZ7mxaMw3okljt2mhkSCQr0HmYwTjqAc8GsVvF+tNHJBGtiLq0iuLi5ea2kjDpFs+URl90bEOOWJ4AOCGFdQPDWii7uLr+zoTPcKyysRncCMHj3qNvCegvaQWraXbtDA5kjUrnDHqc9Tnjr6ClHRK/b8R6GAnjO+/teXzFgi09SAPOtZUC5hWQE3GShOTjaFzVVPF2v3Gm6lLBJYCazWGYNNpk8aukm4bQrSBjgjIfoR/CK61/DWjSak+oPp0LXT/ekIzn5dvTp04otfDejWVvLb2+nQRxSqqyKF+8FJIB+hJxTVupFn3OdPivWYdfawa2W4jt5ktp3isJlV2ZAxkEm4ogG4fIcnAzu5AqOfxXrenWDTXX2O5eeK3a3FtZyAxmWXZ8y+YxkxwcLtJ6cZrp7zw5o9/ffbbrT4ZbnZs8xhzjBH54JGetTSaNps1sbaSyhaEwiAoV42DkL+BqdSjibzxFd6hpkEN7aul6wn8lU821M0kbKAdudyoVZiynPANd3p9w13ptrcuAGmhSQhegJAPFVrfw/pFosAg063TyEeOIhOVV8bwD74GfXFX4okhiSKJQkaKFVR0AHAFVpb+vMmz5r9P+GMPxIA2peGgQCDqhBB7/AOjT06x8H6JpfiGTW9OsxaXc0ZjmEBKRygkHLIOCRjg+9N8Rf8hPwz/2FD/6TT1v0iiC9s4dQsprS4UtFKu1gCQfqCOQfeuePgm2nN29/qF3eTXMIgMsiRKwTIOPkQbvujls11FFKyHc5yfwXpUt15iKYbdpo7iS0jRBC8icBiu3qRgHHXA9Ku3+gxXK2xsriXTJrbd5UloqDaG+8u1lKkH3HXmtaimIrWFkmn2aW0bySBSWZ5W3M7Ekkk+5JNZUvg3Q7rxK/iC8slu9QKqkb3B3rCqjACKeF7n6k1vUUActoVkuoaHqtszlC2q3hVx1RhOxB/AgVq3nh/TdSdJr60hkuArK0qrtLbkKHJHOME8EnHHpVTwl/wAeOo/9hW9/9HvW/RYDGtvC+mWtvLCFuJfOaNpHmuHkdzGQUyxOeMD8qdP4Z0u41U6jJFIZidxXzWEZfbtDlM7dwBxuxmteq99IIrC4kaSSNVjYl413Mox1Awcn2waT7gl0RS0jw9Y6KztbNcyOyLHvubh5iqL0UFicDnpTtP8AD+m6WYzZwGMxtKwO8nmRtzk5POT+Veff2zxZxXOv3kOms13tuYbpn80KI9n70gE8k9hydvI66MOqa/dTwwTPcwSRPYPdkJt5kChoxxxyWLY6YFWrvb+rkysld/1Y66fw7plyZzLAx88OJR5jDduxnv8A7II9DyKjsfC+m2E4ni+0vLh9zzXDyFywALNknLYAGT0AxXGX66jpdheyRajftANU+zzSXmoSoscAQEfvArFMsQNwHPTNPs7i/wBRsFuZdVu2ubOG3P8Aos8io26U4LAqu8lNvJUZ696nt934XGv6++x2MHhnSbSRporcq5EQLF2JxEMIOvYfn3qL+yfD+rSS3UC27SSr5Ty20m0k5D5yp+8Dg56iuJGs64mqay097skhivGlgSeV3jRSfJYReVtj+UKQd53Z7k1pRNeC1v5pIvJcy2lzZ2/lhPJLsQQAAPmK8t7k9qajfXv+otE+Q6WTwppktlDbMbv90zMJRdyCVt33gz53EHuCas3OgWFzDdRskiC6jjjkMcrI2EztwQcgjPUVp0Uh2OdbwTozhd4vGkxIrym7k8yVX27lds5YHavB/uijV4Ut9V8JQRgiOO/dFBOeBaTgV0VYOvf8hzwv/wBhGT/0kuKL9Bm9RRRQAUUUUAFFFFABRRRQAUUUUAFFFFABRRRQAUUUUAFFFFABRRRQAUUUUAFFFFABRRRQAUUUUAFFFFABRRRQAUUUUAFFFFABRRRQAUUUUAFFFFABRRRQBz+uYi8SeHblziITyxFj/eeMhR+JFdBVbULC21OyktLpN8Ug5wcEEcggjoQeQayFsPE9qvlW2sWNxEPuve2bNJj0JR1B+uKAOgorA8nxf/0END/8AZf/AI7Wbr+qeJPDmhXmr32o6ILe1jLsBZS5b0A/e9SeKAOxorkNC1LxJ4h0Oz1ax1LQ2t7qISJmylyM9Qf3vUHj8K0PJ8X/APQQ0P8A8AZf/jtAG/RWB5Pi/wD6CGh/+AMv/wAdrm9E8Xa3r3iXWdDtNS0M3OlsqufscpEgI5I/e9m4P4etAHodFYHk+L/+ghof/gDL/wDHaPJ8X/8AQQ0P/wAAZf8A47QBv0VgeT4v/wCghof/AIAy/wDx2jyfF/8A0END/wDAGX/47QBv1FdXMVlaTXU7hIYUaR2PZQMk1i+T4v8A+ghof/gDL/8AHaT+xNR1KRP7d1GGe2Rg32S0gMUbkHIL5ZmYZ7ZxQBP4Rt5LTwbotvMpWSOyhVgexCCtmiigAooooAKKKKACud0R1sNe1jTJjtmnuDew5/5aIyqDt9dpXB/CuiqlqWk2WrwpHeQ79jbo3Virxt6qw5FAF2iuf/4RVe2ua4B6fbT/AIUf8IqP+g7rn/gaf8KAOgorn/8AhFR/0Hdc/wDA0/4Vw3xQ1VPAWgQ3MOs6zNfXEwSGJ744Kg5cnj04+poA9ZorkdH0q01zRrPVLLxBrj211EsqH7aehHQ8dR0P0rG8fmLwZ4PvdWOva0bgL5dsjXp+aVuF4x26/hQB6PRXn3ghLfxh4RsNZi13Ww8qbZ0F6fklHDDp68j2Irof+EVH/Qd1z/wNP+FAHQUVzx8LKoJOva4AOSTenj9K868FeKbPxb421vQl1vWUjtzusXF8czIvD9uueR7E+lAHs1Fc/wD8IqP+g7rn/gaf8KP+EUXvrmuEdwb08/pQAmqyLf8AifRrGD53spmvbgjpGvlvGoPuxkJH+6a6Gqem6VZaTbmGzhEas252JLM7erMeSfrVygAooooAKKKKACiiigDnvDzrY6hqukTHZcC7lu4gf+WsUrF9y+oDFlPoR7iuhqjqej2WrxxrdxEtEd0UqMUeM+qsORWb/wAIqv8A0Hdc/wDA0/4UAdBRXP8A/CKj/oO65/4Gn/Cj/hFR/wBB3XP/AANP+FAG09rBJdRXTxKZ4lZUc9VDYyB9cD8qmrn/APhFR/0Hdc/8DT/hR/wio/6Duuf+Bp/woA6CivLviXdJ4H8ITahFrustfSkQ2iPe5Bc9yMcgDJ/L1rT8GR23i/wpY6zBrutq0yYmjF8f3cg4Zenr09iDQB31RS28M7RtLGrmJt6bhna3r9axP+EVH/Qd1z/wNP8AhSP4XjjRnfX9bVFGWZr4gAep4oA6GivGvAPii08aeJtb0oa1rUa28hexP20gywj5STx1zz9G9q9F/wCEVH/Qd1z/AMDT/hQB0Fc/fyLqHi3SbSA7zpzveXLDpHuieJFPu3mMceifSj/hFE/i1vW2HcG9OD+launaZZ6Va/Z7KARR5LNySWY9SxPJPuaALdFFFABRRRQAUUUUAFFFFABRRRQAUUUUAFFFFABRRRQAUUUUAFFFFABRRRQAUUUUAFFFFABRRRQAUUUUAFFFFABRRRQAUUUUAFFFFABRRRQAUUUUAFFFFABRRRQAVyXxE8M2/ibwvPDeXNwlrapJctDCwUTMqHaGPXAPOB6V1tZviL/kWdV/685v/QDQBj+APDNv4W8NxW1lc3ElpOFuEhmYN5JZQWCnrgnJ59TXVVR0X/kA6d/17R/+gir1AEc8by28kaStE7qVWRRkqSOo+leYeDfhtpmheN9QvrG9vlurCVEkkeQN9pWSFWcOMd2O7juBXqdc/ov/ACNHib/rvB/6ISgDoKKKKACiiigAooooAKKKKACiiigAooooAKKKKACiiigArkvHOiaZeacL+5sYJ7tJIIY5JUDFUM8ZIAPAzXW1g+L+dEjX+9eW4/8AIq0AaWmaVY6NZiz062jtrYOziKPhQWOTgduSTWT400jT9S8OX097ZxXElpaTyQGVdwjYxsNwB4zjvXRVleJv+RU1j/rxn/8AQDQAzw3o+naVpcbafZxW32pElmES7Q77AN2OgOAOlbFVNL/5BFl/1wT/ANBFW6AI54I7m3kgmXdFIpR1zjIIwRXG+HfC2hW/ifV2g0q1hfTrqEWjRxhTEDbRggEc85PX1NdtXOSaXrtprOo3ml3OneTfOkjJdROWVljVMAqwGPlB/GgDo6K5/Z4w/wCfjQv+/E3/AMXRs8Yf8/Ghf9+Jv/i6AOgorn9njD/n40L/AL8Tf/F0bPGH/PxoX/fib/4ugDoKK5/Z4w/5+NC/78Tf/F0bPGH/AD8aF/34m/8Ai6AOgorn9P1HWI/EQ0rVfsD+ZaPcpJaq642uqkEMTn736V0FABRRRQAUUUUAFFFFABRRRQByXxD0TTNQ8J6rf3tlFcXNlp101s8g3eUTG3IHTPvW3o+h6ZocMy6XZRWiXEnnSpEMKXPU46D8KpeOTjwD4h/7Btx/6Lat1P8AVr9BQA6obu1gvrOa0uYxJBMhjkQkgMpGCOKmooA4zw34Y0O28Q61Pb6XawzWGoLHbPFGEMamzt8gY7HJ4Pqa7OsLQf8AkM+KP+wmn/pHbVu0AFFFFABRRRQAUUUUAFFFFABRRRQAUUUUAFFFFABRRRQAUUUUAFFFFABRRRQAUUUUAFFFFABRRRQAUUUUAFFFFABRRRQAUUUUAFFFFABRRRQAUUUUAFZeo+IdO0q6S1uWuWndPMEdvaSzkLnGSI1bAzxzWpXPr/yUOT/sFJ/6NagB3/CYaV/zy1b/AME93/8AGqP+Ew0r/nlq3/gnu/8A41W9RQBg/wDCYaV/zy1b/wAE93/8ao/4TDSv+eWrf+Ce7/8AjVb1FAGD/wAJhpX/ADy1b/wT3f8A8aqjrPinT7vQ9QtoINWeWa2kjRf7IuhlipAHMfrXWUUAU9JjeHRrGORSrpbxqynqCFGRVvcv94fnS1xPhLwt4ev/AAtY3V5oOl3FzKpaSaazjd3O48kkZJoA7Xev94fnXP6Kw/4SjxNyP9fB/wCiEqX/AIQvwr/0LOjf+AEX/wATR/whfhX/AKFnRv8AwAi/+JoA296/3h+dG9f7w/OsT/hC/Cv/AELOjf8AgBF/8TR/whfhX/oWdG/8AIv/AImgDb3r/eH50b1/vD86xP8AhC/Cv/Qs6N/4ARf/ABNH/CF+Ff8AoWdG/wDACL/4mgDb3r/eH50b1/vD86xP+EL8K/8AQs6N/wCAEX/xNH/CF+Ff+hZ0b/wAi/8AiaANvev94fnRvX+8PzrE/wCEL8K/9Czo3/gBF/8AE0f8IX4V/wChZ0b/AMAIv/iaANvev94fnRvX+8PzrE/4Qvwr/wBCzo3/AIARf/E0f8IX4V/6FnRv/ACL/wCJoA1bq9tLG2kubu6ht7eMZeWaQIqj3J4FZY8Y+F2+74k0c/S+i/8AiqT/AIQrwr/0LOjf+AEX/wATUHgiGL/hDrBPLTaokVV2jAAkYAD2oAtjxZ4cbp4g0o/S8j/xp48TaA3TXNNP0u4/8avm1t2628R+qCmHT7Jutnbn6xD/AAoArDxDordNY08/S5T/ABp41vSW6apZH6XCf4086TpzddPtT9YV/wAKYdE0luul2R+tun+FADxq2nN01C1P0mX/ABrH8UXEdzpCGzeO6eK5imMMUqbmVXBO3JAJx71pHw9orddH08/W2T/CsPxLoml29naR2elaZBNdXcdv5psY3KBickAjGeO9AHQafq9hqdhBe21yjQzoHTJwcH1HY+1VvEskbeFNY2up/wBBn6H/AKZtVez8E+GbOyhtV0LTpEiQIHltY3ZsdySOTUh8HeFz18N6OfrYxf8AxNAF/S2X+yLL5h/qI+/+yKt71/vD86xP+EL8K/8AQs6N/wCAEX/xNH/CF+Ff+hZ0b/wAi/8AiaANvev94fnRvX+8PzrE/wCEL8K/9Czo3/gBF/8AE1W1Dwb4XTTbpl8N6OrLC5BFjECDg/7NAHSbl/vD86N6/wB4fnXIeG/CHhmfwvpEsvh3SJJHsoWd3soyWJQEknbya1P+EL8K/wDQs6N/4ARf/E0Abe9f7w/Ojev94fnWJ/whfhX/AKFnRv8AwAi/+Jo/4Qvwr/0LOjf+AEX/AMTQBt71/vD86N6/3h+dYn/CF+Ff+hZ0b/wAi/8AiaP+EL8K/wDQs6N/4ARf/E0AYc/iWxT4iQMUuPs8dnNatciP90JPOjUjOc4DfKTjGeK7fcv94fnXLvp1injK009bK3Wy/sedPswiUR7fNi424xj2q7/whfhX/oWdG/8AACL/AOJoA296/wB4fnRvX+8PzrE/4Qvwr/0LOjf+AEX/AMTR/wAIX4V/6FnRv/ACL/4mgDb3r/eH50b1/vD86xP+EL8K/wDQs6N/4ARf/E0f8IX4V/6FnRv/AAAi/wDiaANvev8AeH50b1/vD86xP+EL8K/9Czo3/gBF/wDE0f8ACF+Ff+hZ0b/wAi/+JoA296/3h+dG9f7w/OsT/hC/Cv8A0LOjf+AEX/xNH/CF+Ff+hZ0b/wAAIv8A4mgCHx26/wDCv/EPzD/kHT9/9g10CfcX6CuM8WeEfDVv4S1aaDw7pMUqWrlHSyjDKcdQQvBrtF+4PpQAtFFFAGFoP/IZ8Uf9hNP/AEjtq3awtB/5DPij/sJp/wCkdtW7QAUUUUAFFFFABRRRQAUUUUAFFFFABRRRQAUUUUAFFFFABRRRQAUUUUAFFFFABRRRQAUUUUAFFFFABRRRQAUUUUAFFFFABRRRQAUUUUAFFFFABRRRQAVz6/8AJQ5P+wUn/o1q6CufX/kocn/YKT/0a1AHQUUUUAFFFFABRRRQAVz/AII/5EzTP+uZ/wDQjXQVz/gj/kTNM/65n/0I0AdBRRRQAUUUUAFFFFABRRRQAUUUUAFFFFABXP8Agn/kUbL6y/8Aoxq6Cuf8E/8AIo2X1l/9GNQB0FFFFABRRRQAV5V8UPH0/hPWtLtbvR5Li1M8d1bTQycyMu4NGQRwclcfWuu134geHtBBSe9Wef8A542/zt+OOB+NcNqup+IPHaW17ZeFYXttOu0nt/te7eXAOCOQCPXGegqHUinY66eBrTjztWXd6L8T1TSZ7y50m0n1C3S2u5YleWFG3CNiMlc98dKuV5rafFdLG/fTvElgba5iO2SS2bein3HUfrXeaZrOm6zD5unXsNyuMny2yR9R1FEZxlsya2ErUdZx079PvL1FFFWcwVV1L/kF3f8A1xf/ANBNWqq6l/yC7v8A64v/AOgmgCn4W/5FHRf+vCD/ANFrWtWT4W/5FHRf+vCD/wBFrWtQAUUUUAFFFFAHPy/8lCtP+wVN/wCjYq6Cufl/5KFaf9gqb/0bFXQUAFFFFABRRRQAUUUUAFFFFAGF40BPgzVwDg/Zn5xntW4v3R9KxPGX/Im6v/17P/Kttfuj6UALRRRQBhaD/wAhnxR/2E0/9I7at2uVhvrnRdc10SaNqVzHd3iTwy20SupX7PCndhzuRqtf8JRJ/wBC7rn/AIDJ/wDF0AdBRXP/APCUSf8AQu65/wCAyf8AxdH/AAlEn/Qu65/4DJ/8XQB0FFc//wAJRJ/0Luuf+Ayf/F0f8JRJ/wBC7rn/AIDJ/wDF0AdBRXP/APCUSf8AQu65/wCAyf8AxdH/AAlEn/Qu65/4DJ/8XQB0FFc//wAJRJ/0Luuf+Ayf/F0f8JRJ/wBC7rn/AIDJ/wDF0AdBRXP/APCUSf8AQu65/wCAyf8AxdaGkaxDrEVw0cFxBJbzeTNDcJtdG2q3Iyf4XU/jQBoUUUUAFFFFABRRRQAUUUUAFFFFABRRRQAUUUUAFFFFABRRRQAUUUUAFFFFABRRRQAUUUUAFFFFABRRRQAUUUUAFc+v/JQ5P+wUn/o1q6CufX/kocn/AGCk/wDRrUAdBRRRQAUUUUAFFFFABXP+CP8AkTNM/wCuZ/8AQjXQVz/gj/kTNM/65n/0I0AdBRRRQAUUUUAFFFFABRRRQAUUUUAFFFFABXP+Cf8AkUbL6y/+jGroK5/wT/yKNl9Zf/RjUAdBRRRQAE4BNfN2uePNc8RSuJb94rRuPstuxQbfQ92/HNfSB4Br5MvZk1C9muVSKFpGLeVGmxV9gK58Q3ZI9zJIRc5SaTatv8z1fTtV+FiacitYBX2/MtxEzyE9+eefpXK3Ntq66vfjwlp+s22m3ChArRuCV47nkDPvmuI/eJ05FdRonxF8RaHH5MF60kIUqIpx5ir6YzyMflXPzc2/4Hr/AFeVK8oNyb6SbsYOrQ6lBeSW975i3EXyukjZZfaksbm8s51mtriSCUdHjcqw/EVDNdS3MzyuWeSRizuxyST1JpoiZuXbH1NQditutfyPbfhd401XXtQudL1K4S5ENv5qS7cNwQMEjr1+vFeoV4p8E7pF1vUbNEiO62Epk2fMMMBjd6c5x9K9rruotuGp8hmcIwxMlFJLyCqupf8AILu/+uL/APoJq1VXUv8AkF3f/XF//QTWp55T8Lf8ijov/XhB/wCi1rWrJ8Lf8ijov/XhB/6LWtagAooooAKKKKAOfl/5KFaf9gqb/wBGxV0Fc/L/AMlCtP8AsFTf+jYq6CgAooooAKKKKACiiigAooooAw/GX/Im6v8A9ez/AMq21+6PpWJ4y/5E3V/+vZ/5Vtr90fSgBaKKKACiiigAooooAKKKKACiiigAooooAKwfD/8AyFvE/wD2FF/9Jbet6sHw/wD8hbxP/wBhRf8A0lt6AN6iiigAooooAKKKKACiiigAooooAKKKKACiiigAooooAKKKKACiiigAooooAKKKKACiiigAooooAKKKKACiiigArn1/5KHJ/wBgpP8A0a1dBXPr/wAlDk/7BSf+jWoA6CiiigAooooAKKKKACuf8Ef8iZpn/XM/+hGugrn/AAR/yJmmf9cz/wChGgDoKKKKACiiigAooooAKKKKACiiigAooooAK5/wT/yKNl9Zf/RjV0Fc/wCCf+RRsvrL/wCjGoA6CiiigBDwDXyZe3H9pX091KVWeVyzjYE+YnngcV9aVy+v/D/w74i3yXNisVyw/wCPi3+R8+p7H8Qayq03NaHpZdjIYaT51e581GOSI96b5gP3k5r0nXfhDremK0mkXKajbjnymGyQfgeD+B/CuAvbefT52gv7KW1mU4KyKR/P/GuOUJR3R9LQxdKqv3cv6/Mrb2bhFwKcICRuc4HXk1t6N4X17xAyjTNLlMTHBnkGEH/Ajx+VelaD8FrWJxP4gvmu3/54W5Kp+LdT+GKqNOUtjPEY+hR+N3fb/gGX8E7o/wBt6jZxqpi+zeYzeWM5DAD5uvQnj2r2uqOl6Pp2i2ottNs4baIDpGuM/U9SfrV6uynHljY+WxmIWIrOolYKq6l/yC7v/ri//oJq1VXUv+QXd/8AXF//AEE1ZylPwt/yKOi/9eEH/ota1qyfC3/Io6L/ANeEH/ota1qACiiigAooooA5+X/koVp/2Cpv/RsVdBXPy/8AJQrT/sFTf+jYq6CgAooooAKKKKACiiigAorO1XXtK0SPfqV/BbAjIDtyfoOpriNS+JGpXsDf8Iv4fvLpf+fqaFtn1VRyfxIqJTjHc6aOErVtYrTu9F951njL/kTdX/69n/lW2v3R9K8KtZ28WXF7D4q8Uz2Myxl1tyjRpHg87lICn6A5NVD411DwrfiLRNbfUdOUD/j6+YMe/B5X8DWft1u1od/9jzbcYy95eTt959A0V5voPxh0e/Cx6pE9jKRzIPnjJ+vUfiPxr0Cyv7TUbdZ7K5iuImGQ8bBhWsZxlszz6+FrUH+8jb8vvLFFFFUc4UUUUAFFFFABRRRQAUVHPcQ2sLTXEqRRKMs7sAB+JrjtR+JWmRytbaLbXOs3YH3bVCUB92/wzUyko7m1LD1ar9yN/wCu52tYPh//AJC3if8A7Ci/+ktvXlmr+LfE1/fRw67cTaBp7OCyxQSKWXPIDAEk49eKr6sbTwjLLL4f8XXF1fFwzRhwFAx/F1DnpxxWTrrsejHKJuyctXtZNr79j3mivHNB+NEqbYdcsxNjgz22A34qeD+GPpXpWjeKtE19f+JdqEUr94ydrj/gJ5q41Iy2ZyYjAV6Gs46d1qjZooorQ4wooooAKKKKACiiigAooooAKKKKACiiigAooooAKKKKACiiigAooooAKKKKACiiigAooooAKKKKACufX/kocn/YKT/0a1dBXPr/AMlDk/7BSf8Ao1qAOgooooAKKKKACiiigArn/BH/ACJmmf8AXM/+hGugrn/BH/ImaZ/1zP8A6EaAOgooooAKKKKACiiigAooooAKKKKACiiigArn/BP/ACKNl9Zf/RjV0Fc/4J/5FGy+sv8A6MagDoKKKKACiuZ8do8vh6KKONJWkvbZPKklMayZlUbWYAkA9DwfpXLxX1/oFpqkVrarYzm+ggaytpxKLdGB/fI8wRDv6DcAARzk8ULW/wDXb/MOv9ef+R6dUUttBOQZoI5MdN6A4/OvMNX1/Vr3wtcQ3WprYqNNvJDOPJLXLIxRVJRmUNjk7D16YHFaEuuahbmMRXpghW6m8wQLC0jBWUAsshBZME52fPkjFCV3YbvHU9DVFRQqKFUdABgUtc34p1GW3jtoLbV106V0klZwIyxVUJ6SAjGcdqy7jVtSnk+1W2sskVtb2bvDFHEyStIzBtxKkjgDoRQtXYmTsrs7iiuO0HU9Xn8TGK6uLmWzljnZGaOAQMUdQPKK/vCBkjL9eozXY0La4+tgqrqX/ILu/wDri/8A6CatVV1L/kF3f/XF/wD0E0AU/C3/ACKOi/8AXhB/6LWtasnwt/yKOi/9eEH/AKLWtagAooooAKKKKAOfl/5KFaf9gqb/ANGxV0Fc/L/yUK0/7BU3/o2KugoAKKKKACiiigAooooA+XvFpuo/FeprqKSrN9pkKlzn5Nx28HtjH+FdVpHxf1XTtNhsnsrO4EKBEflDgcDIHH8q5TxZFPa+LNUivk+c3UjBg27KliV/TFYW1GPynB968/mcZNrQ+2jSp16UY1EpJJeX3Hpp0O9+JeojU5db0eOYoF+zxBg6AdipGT9cmuG8Q6RbaZrFxYQXovBAdjTKm1dw6gDJzjpms5JJ4JFkjZldTlWU4I+hppEj/eOB71LaevU0p05RfK9Y20jZafMFEceMsTj0r0P4P/a5PGRa3ST7IsD+e2eM/wAOR9a88HlL1JP0FehfCCO5m8Z+dDEVto4HErbvXG0e/PpVU/jRjj3bDTV7aHvlFFFegfFhRRRQAUUUUAFFFFAHj/xs+2LPpj+XK1hscOVbC78jGffFcX4S8eXvhLzks44J4ZyGeOZSCCO4Irs/jbDdC40u6CBrQI6N83R8g5x9K8jYwt0yPr2riqtqo2j63L4xqYOMJ2a7fM9MvfFt/wDEO3OkS3WkaVEXDYnZ90hHo2CB+hrC8W+CY/CthbtPq0NzcXJ/dwwocFR1bdnp+FcfsZfunIpzy3EoUOzEKNq7jnA9B6Vm5c2r3OynRdJqNPSPVWTv8xghSMnLcelWbZpWuIo7FZHumYCLacHdnjHf+VVtiry7ZPpU9usk88cFlEXndgsfOPm7frU7mrtFWWh9Z2ocWkIlz5gjXdn1xzUtRWqutpCsn3xGobnPOOalr0z4J7hRRRQIKKKKACiiigAooooAKKKKACiiigAooooAKKKKACiiigAooooAKKKKACiiigAooooAKKKKACufX/kocn/YKT/0a1dBXPr/AMlDk/7BSf8Ao1qAOgooooAKKKKACiiigArn/BH/ACJmmf8AXM/+hGugrn/BH/ImaZ/1zP8A6EaAOgooooAKKKKACiiigAooooAKKKKACiiigArn/BP/ACKNl9Zf/RjV0Fc/4IP/ABSNl9Zf/RjUAdBRRUF6Lk2FwLPy/tRjYQ+YSF344yQDxn2oYIzYfEOk3kV/JM6xQWEmJZLgAJweHBz0yCM8ciq914m8JG3Sa71TSzDdqUVpJEIlAPK89celY0/grULOzEOm381x5lr5M/2u7ZTuVlZWjIU7ed2eO49Ktaf4c1SO3tTctCsqamt5IDctMxQRlOZCilm6dQMDjtQlrZjVtzV+3+GZzJZmfS3/ALPj8x4SUP2dMdcfwjBqSC68P6r5ckEmn3XlzNsZdj7ZQMnHo2Oa5LVfCerf2ZqMOy2kghhv2tmiLPNcNcFjtZNoxjdjhjuwOlXf+EX1e9vkvLhrS0EjRxzQQuzgQojKdp2r8zbsHjgdzT6XE9HY2Jm8Larqlq88mm3l3Pb7rdZCkm+LOdyg549xS6LceGEtHtNJuNPeKFkikWJlOG6IG9TxgfSspfDWrRjSbWFLCK3s413TLIxywUgKYtuHAyMEsMZPFU7Hwt4gtfNupTbT3O23CRS3zspMTsxw/l/IpDcKFOPel5dAaOx+26XbBv39rELdHz8yjy1Ujd9AOM/hUn9p2OUH2yDLyCJf3g5cjcFHuQc49K4hfD2tazeXq6hbWtpADcJJGJWkWcyCN02sUXKg5DcdVxWhD4Tvv7V+13E1uyRXUEtugJ+UKiLIx4+8dmB7d+TTirpc2mwptrY7Gqupf8gu7/64v/6CatVV1L/kF3f/AFxf/wBBNIZT8Lf8ijov/XhB/wCi1rWrJ8Lf8ijov/XhB/6LWtagAooooAKKKKAOfl/5KFaf9gqb/wBGxV0Fc/L/AMlCtP8AsFTf+jYq6CgAooooAKKKKACiiigD5q8Y+HtZ0nXL+4v9Nl+zTXEkkc8YypVmJGSOM4I4PNcz5UcozG4JPbofy/wr66dFkQo6hlYYIIyCK4rX/hb4c1sNJFb/AGC5PPm23AJ916GuadDrE9/D5yrKFZHzvtlTgUoikkPOa9B1X4R+KLGYrp7Q6lB2O9Y2/EMf5Grei/BrV73a+t3qWcQIzDERI5H1Hyj9ax9lO+x6TzDDKHNzfK/6bnmoWJGAyXY9AnOf8/jXpvwn8O61H4ji1eawe309YXXzJBtLkjAwDyf5V6ToPgPw94dKyWdir3AH+vm+d/wJ6fhXS1vChZ3Z5OLzf2kHTprRhRRRXQeIFFFFABRRRQAUUUUAeVfF7w/rGpT2F9p9i13b28TLKsYyykkHOOuPpXjTonmGORWhkHBWQYx/n3r66rE1zwjoXiJT/aWnxSSEYEyjbIP+BDmsKlHmd0exg81dCCpTV0j5daJ05U8eopMStxXq+t/Be8ti02gaiJVzkW9x8p/Buh/ED61iaf8ACbxbd3Ijuo4LCL+KV5Vb8ghJz+Vc7pTvsezDMcNKPNzW+ZwvkrHzI2D6d/yrT0nQtW1+fyNH0+WYn/loVwq+5J4Fe0aD8IfD+lhJL8PqVyOSZfljz7IP65rvoYYreJYoY0jjUYVEUAD6AVrHDt/EcFfOox0or+vz/IbaxtFaQxv95EVT9QKloorqPnWFFFFABRRRQAUUUUAFFFFABRRRQAUUUUAFFFFABRRRQAUUUUAFFFFABRRRQAUUUUAFFFFABRRRQAVz6/8AJQ5P+wUn/o1q6CufX/kocn/YKT/0a1AHQUUUUAFFFFABVO51GG3UsSMDuafqE7W2m3VwoBaKF3APcgE1w+leKtE8UWcSfa1trs4zBKwVg3tnhh9K1p03L3nt1MK9Vwi1C3N0TOgk8SKD+7Rj+GKo2mrpYWsdraW3lQRDCIG6DrWTqGj+IASbB7J07E5DfrxWU2l+Md/+rh+oZcV3RpYW2/4nhTrZpfa3ov8Ahzt4/Ehz88bAe2DWja6xDc9Oo6juK4Sz0fxSzA3DWSJ33cn9K15LzTPDsRn1G/iE237qnk/7q9TWdSlRatT1flqdOFr45SXt0uXq3p/X3HaqwZQynINLWF4S1oa/opvli8qMzuiKTztBwCfet2uKcHCTjLdHswmpxUo7MKKKKkoKKKKACiiigAqnc6jFbqWJGB3PSpb2UwWNxMoBMcTMAfYZrhNJ8WaJ4osokN0lteHGYJWCsG9s8MPpWtOm5e89luYV6rhFqFubpc6GXxIoJ8tGP4YrHsZbDTLp7mx09YJXBDFZGxycngnA554FU9Q0fXwSbB7J07E5DfrxWU2l+Md/+rh/BlxXdGlhbb/ieFOtml9rei/4c7dPEhz88bAe2DWja6xDc9Oo6juK4Oz0fxSzA3DWSJ33cn9K2JLvTPDsXn6lfwrNt+6p5P8Aur1NZ1aVFq1PV+Wp04Wvj1Je3S5eren9fcdqrB1DKcg0tYPhHWx4g0eS9SIxxfaHSMHrtGME+9b1cU4OEnGW6PZhNTipR2YUUUVJQUUUUAFNd1RSzHAFOrm/GXiKLw1Y2V1cRs8Et0IZNnVQUY5HryBVRi5vljuTKSguaWxoXWtQ2xwevp1NZs/iESxvGYSyOCrAnGQaz1n07X4mudK1G3lkIGRuzj6r1FY11pPitXPkiyZO2w/4120qVC1pvXz0PFxVfMOd+yS5ejWp0drrf2O2htoINkMKLHGgb7qgYA/IVci8SISBIhH4ZrhV0rxiTykI+rLWxp+ja3kHUZrNF77ASf6CtJUsLbf8TCnWzS+1/VW/yO4t7+K4UFSMHoR0q1XnmreLtJ8O2bQW06Xd5/DGjbgG9WI4H0616HXDUpShrbR7HuUa3OrO3MrXt0Ciiisjc5+X/koVp/2Cpv8A0bFXQVz8v/JQrT/sFTf+jYq6CgAooooAKKKKACoby8t7C0lu7uZIbeJSzyOcBRU1ZHiWwuNR0fy7RUeeGeG5SJzhZDHIr7Ce2duM9jQCFtvEml3SblnljbzFiMdxbyQyKzfdyjqGAODgkY960zLGFVjIgDfdJYc/SuUv7W88SeT9q0Bra2W6gLpcvGZZEUktuCMw2dOMnOTxXOa74U1afSE0200iNolS7FuQkL+SzOxQDe37tcYwyAsOnGKSetn/AFsNL+vvPRodTs7hbsxThxaSGOfAPyMACR78EdKo6Z4p0rVp4obWS5DzR+ZD9os5oBKvXKGRFDcEHjPFZ+h6RNYxeIozpwgku7hpUkUIPO3RKOoOc7g2c45NY9l4U1iytdOVbm7mkOltbA3E6n+z5zGAHXGMj+HjOMDFU9L+i/Jhpdf12O+82MoX8xdq8E54FVrTVbK+jMlvMXjG7LlGVflYqeSMdQa870/wrqNvYO0+kTzQLNA09gyW6C6CBtxCK2xuSDlyC2OQMCpx4X1BdJlik0iTy9h228TxOR/pEjhdrnY4Csp2sQD65FLt/XQR6QCGAKkEHkEUtZugW8tpoVpBPbx27omPKjUKEGeBgEgcY4BwO3FaVN7iTugooopDCiiigAooooAxD4s0cXz2hluQ6Ti3aU2UwhWQkAKZdmzOSB97qQK2Q6lygYbhyRnkVwknhfU1mur3ddzJ/a/2ltNM6iKeLK4YejAgMASMlcHrVH/hEtbfXNVkBmjnnS7Ed8BEisJAfLUuD5jbcgYIAXGQaOi/rogW/wDXmd9Hq1lNfy2MUxe4i271RGIXcCVyQMc7T37VbSRJBlHVh0ypzXnNp4buzfTTW3h59NtXjRRAs0cbZEUqsQUJCnLDkc859a2fDkM3h3w9qE82mNbxx5kSEQwxSSYXusbFMngA5ye9Dsr+QdjrBNEQxEiEL975hx9aT7RCED+bHtJwG3DFeaW2nHY+mJ4UuLZ720hWXzI7YLMVlBkd9shyMN35Poav6l4Ka6F1ZWumWlvb+fNNCTbRSRKpijUBYzwGLA844Ab1oV7f13/ph1t/W39I9AByMiiqumwvb6ZaQyLteOFFYehAAq1QxIKKKKBhRRRQAUUUUAFFFFABRRRQAUUUUAFFFFABRRRQAUUUUAFFFFABRRRQAUUUUAFFFFABRRRQAVz6/wDJQ5P+wUn/AKNaugrn1/5KHJ/2Ck/9GtQB0FFFFABRRRQBS1n/AJAeof8AXtJ/6Ca+VByBX1XrP/ID1D/r2k/9BNfPXw+tLe88aadFcqrRglwrdCyqSP1r1cvlyU5y7Hk5jDnqQiupHaW3iqztUmt4dXhtyMqUWQLj144xWtaal43uLbzoH1SSAgkOsRIP0OOa9b8S3a2+mJGxlxczpAREpZirH5sAc5xmrGm6naXjSW1vHJA9uFBgkTYVU9CB0xx29Kf15uPO6aYvqKU+RVGjxsx+Lb2za8LalLByGZJGIGOuQD/Suckzk5znPOa901DULa01+3a1L/aDKsV0qD5WUkDJ9WUsvIz1wa82+I8VvD4umW3jVCY0aTb0LEcn616OExbqS5HG11c8/F4RU486nezseifCv/kSYv8ArvJ/Ou1rx7RvH+m+AvhxbXN/b3M8k9xMIY4UOGIPQt0H8/aun8JfESHWvDsGpalbXUMtwzOkdrp1zKqpnCjeIyGPHJBxXgYv+PP1Z7+E/gQ9Ed1RWD/wmOk/3NU/8FF1/wDG6P8AhMdJ/uap/wCCi6/+N1znQb1FYP8AwmOk/wBzVP8AwUXX/wAbo/4THSf7mqf+Ci6/+N0Ab1FYP/CY6T/c1T/wUXX/AMbo/wCEx0n+5qn/AIKLr/43QBp6p/yCb3/rg/8A6Ca+Ul+6PpXrWnfGW21DU9S8M6tYTRXymaCKa3hcpJgHBKMA6cdcjj2riPANpb3njPTIbpVaPeW2t0JCkgfmBXq5dLkhOXY8rMY884RXUSztfFNpaJNbQ6vFbkZUxrIFI9eOMVrWmpeN7i2863fVJYcE71iJBx1wcV654kuxbaUEYy/6TNHAfKUsxDN82AOc7c1Npmp2d2z2lvHJA9uqgwSR7Cq9iB0xxjj0p/Xm48zppk/UUp8iqNHjvl+Lb60a73alLAMhikjcY65UH+lc5JnJ3ZznnPrXuepahbWeu272pf7SZFiulQfKyEgZPqylgcjPXBrzj4lRW8Xi2QW8aozRI0u3ux7/AFr0MJi3Ulyctk1c8/GYRU48/PeztqegfCn/AJEsf9fMn9K7evGNH+IFp4C+HcVxc2F5dPNcS+X5Mf7sEY4Z+i/TrXW+D/iAdZ8N2+p6naXKTXJZ0S0sZ5ERM4A3BSGPHJFeFjP48/U97B/wIeh3VFYX/CXaZ3h1Qf8AcLuf/jdIfF+lDqmqf+Cm6/8Ajdcx0m9RWD/wmOk/3NU/8FF1/wDG6P8AhMdJ/uap/wCCi6/+N0Ab1ecfGf8A5FSy/wCv5f8A0W9aHin4gw6T4cu9Q0y3upbi2USeXdabdRoygjcNxjAU4zgnjNefeKviLpvj7wRbyWVtc288F6nnRyoSoJR+jjg/ofaunCfx4nNi/wCBI4a0gubi5SO0ilknJ+RYlJYn2A5rohP4u0tlEj6vDkhVEgfBJ6AZ4rtPg5a2/wBg1K82g3JlEW7uEwD+p/lXW3+pwReJdk0FzOLO3EipDFuCu5OWPbO0ADv8xr06uMtVdPkvY8ulg70lU57XPMJr/wAbRRKbp9TiRjjdJGUGfc4GKp6vaeIbaEHVlvvKY5BmdmXP5kV7nDe2l5pwvEkV7V0LFmHG3vkH+VYWl3NndvqOnhGfTPL8yNZl4UHO5euQB1GcYzU0swau1TStv/Xcqrl6dk6jd9v67Hhp+8PrX1LXy5JtM52DCbvl+ma+o6ec7w+f6Cybafy/UKKKK8Q9w5+X/koVp/2Cpv8A0bFXQVz8v/JQrT/sFTf+jYq6CgAooooAKKKKACiiigAooooAKKKKACiiigAooooAKKKKACiiigAooooAyNU1mazvYrKysTe3TRmZ4hKIysYOCRnqcngcfUVQu/GlpZWYup4GWPbcFvnHymJ9uD9T+XetLVNDg1SaKZrm7tpUUoXtpdjOh6oTjocdsEdiKguvCWi3d6961jFHcyRtFLNEoR5AwHLMBkkbRgk8Ypa2+/8A4APy/ruYcPj6e9t430/TLO8c3QtJPJ1JWjV2G5SrqpDAjOehBHQ1qSeLI4oIHa0JeR542RZAdhiYqe3fFW4fDlukMST3l9dvHcrdCW4m3MXUYA4AAGOwAqPUvCOi6ndS3clokN1NG8ctxbqI5JFYAHc4GTgAY54xTe2m/wDwP8wey/rr/kU5PGtsjzBbWRlW5+ywNuH79/L3DaOuCcqPpnpSy+MFt/E1vos9vbxyTMsePtsZmDFd2REPmKdtxx34xyb7eGdMZdvlsIxjCBuBiPyxj6D9eaqnwxp1vqSXst/dg+etwsUk4CGVUCl8YySVXnnHU4FEd9Qe2m50VFAIIBByD3ooAKKKKACiiigAooooAKKKKACiiigAooooAKKKKACiiigAooooAKKKKACiiigAooooAKKKKACiiigArn1/5KHJ/wBgpP8A0a1dBXPr/wAlDk/7BSf+jWoA6CiiigAooooApaz/AMgPUP8Ar2k/9BNfMugX50vXtPvQceTMjE+2ef0r6a1n/kB6h/17Sf8AoJr5UH3R9K9fLUnCaZ5GZNxnBo+l9XKZ0243fuku0Yt6AggH9RUNqqN4tvnhUCOG1ihk2jA8ws74+uGBP1ryKT4gahdeF4NDkXYoAjmuUOXeMdsHv711Xw61O3uNeltLBLiO2SzLyGeXc00m9RvI6Dg4GO1ZSwc6dKUpdDSOMhUqxjHrb77HS62yaPNLPIG+zXNxDPuAyEdHUuD7FVz+BrxzWdQfVdWur6TO6aQsAew7D8q9X+I2ox2On2UU1stzFNKxaFnZQ2B3I54Jz+VeQ3cqTztIkEcCnpHHnA/Mk16WVw/d+0a1fX+vQ87NJ/vPZp6Lp/XqeyfDW0tr74fi2u7eK4gkmlDxSoGVhnoQeDXVaJoWn+HbA2GlwGC18xpFi3lgpY5IGTwM9q5v4V/8iTF/13k/nXa14eL/AI8/VnuYT+BD0QUUUVznQFFFFABRRRQBzsHhfRvD2k6m+m2McU08UrzTn5pZSQSdznk89s4r540O+bTNasL5TgwTI5Ptnmvp7VP+QTe/9cH/APQTXykPuj6V6+WpOM0zyMzbUoNH0trDI0enXO79yl3FIX7AHIB/8eFRW6o3i+8aFQEhtI4pdowPMLs2Prgg/jXkTfEDUZ/C0OhuuwAeXLcqcu0X90D1966n4d6nbz+IHs7BLlLdbNnlaeXc00gZQGI6DAOBjtWcsHOnSlKXS/3GkcZCpVjGPW33nTa4U0maWeQN9mup4JiwGQjo6s+fYqufwNePa3qL6vrF3fvnM0hYA9h2H5Yr1b4i6jHY6ZZxzW63MU0x3ws7KGwvcjngnP5V5BdzJPO0kcEcCnpHHnA/Mk16GVw/d+0a1fX+vQ87NJ/vPZp6Lp/XqeyfDCCG68CNBcRRzQyXEivHIoZWHHBB611mkaLp+g2RstMthbW29pBErEqpY5OMngew4rl/hT/yJY/6+ZP6V29eLjP48/U9vB/wIegUUUVzHSFFFFAGfrWi2PiDTH07UojNaSMrPGHKh8EEA4IOMjkd64H4t2Vrp3gnTrSytora3jvVCRQoFVR5b9AK9Orzj4z/APIqWX/X8v8A6LeunCfx4nNi/wCBI5X4QaiINcvNPZsLcwh1HqyH/An8q9Oj8mLXtS+0bdjwRS4foVXIJ/Aj+VfO+lalcaRqltqFqcTQOGXPQ+oPsRxXVap4zXxFrEVzqkVxHZQLiO1tXAyT13MfWvSxGDlUquS2aPMw+MjTpKL3T0PWdAthP4XSKYHy7kSNg8HY7MR+hrkvEmsyaPYXVnJvF4bNbIORjd8zEsP+AEc+pro/Ad69/wCFYp2BVTNIqIWLbEDfKoJ5wBxXC+OdXhPiO+t5bCG4ki2pHLI7/IMdAoIHfNZYSm5YmUJK9nf8TbF1FHDRnF2urfgcMfvj619S18tH74+tfUta5zvD5/oY5LtP5fqFFFFeIe4c/L/yUK0/7BU3/o2Kugrn5f8AkoVp/wBgqb/0bFXQUAFFFFABRRRQAUUUUAFFFFABRRRQAUUUUAFFFFABRRRQAUUUUAFFFFAHLeNtVfSrGGWHVPsc4JaOHcim4Ix8o3A7/wDcXDNnAIrAPiK//tLUBFrUktxHLdo1j5aAQRIhZJMY3cNgZJwc46ivRyoOMgHHTNQ21nb2gkEEYQSO0j8k5ZjknmlZ/n+gzhLjVNY1DT9QvF1O6soxFbTWqwoisEZipLb1P3vvYxxx71Fd67q2meL1sJtUCW1u8ar9ruIlNxCU3PIyBNxIO4bgQo2816PgelIVUnJAJ6dKGtboS21PN5tU1nT9GjuotWurtrqwjuHM7RKsOXQMysEAUAMeWyB1qBtXvtS0S3tbh7bUHnW6NtJIiXCZjKlJWYIEJQbuQACQMV6fgYxgelAUAYAAFNiWjK2myPLpdpJI5eRoULMRjJwMmrVFFDBBRRRQMKKKKACiiigAooooAKKKKACiiigAooooAKKKKACiiigAooooAKKKKACiiigAooooAKKKKACufX/kocn/AGCk/wDRrV0Fc+v/ACUOT/sFJ/6NagDoKKKKACiiigCC9tzd2FxbBgpliaME9sgivmHWtA1Lw9eNa6hbPEQcK+PkceqnvX1LUNzaW17C0N1BFPE3VJEDA/ga68LinQb0umcmKwqrpa2aPlKOul8I68vh3XEvpInli2MjohwSDXsV18NvCt0xb+zBCx7wyMg/LOP0ql/wqfw3nIN6Pbzh/hXp/wBo4ecXGadmeX/Z2IhNSg1dHnfi/wAV/wDCT3cBjgaC3gUhFZssSepPbsK52G2nu51gtoZJpW+6kalifwFe5W3w28MW5BazkmI/56zN/QiuhsNJ07SoylhZQW4PXy0AJ+p6mj+1KNKmoUYvQf8AZderUc60lqYfgbTm0Hw/b6VeTRC/O6d4A43KGPp/Wuoryj4teB9X8T674dvNBd4LyNpIZLlXK+UgG9SSOnII+pFdv4Nl3eHooJb29urq3JjuftxUzRyDqrYAz7HnIwcmvEqTdSbm92e3TgoRUFsjoKKKKgsKKKKACiiigCG7hNxZzwA4MkbJn0yMV8w634f1Lw7eta6hbPHg4STHySD1B719SVDc2tveQtDdQRzRN1SRQwP4GuvC4p0G9LpnJisKq6Wtmj5SSuj8Ja6vh3XYr943kjCsjohwSD/kV7LdfDbwrdNu/ssQt6wyMg/IHH6V5pfWvgyz+KVl4PX7UVlQrLP9oHyTnlE6d+h92HvXp/2jh5xcZp2Z5f8AZ2IhNSg1dEPi/wAWf8JPcweVbtBbQA7FdssSepPbsK5uK3muplht4Xllb7qRqWJ/AV7nbfDXwzbkFrOSYj/nrM39CK6DT9I07SkKWFlBbg9TGgBP1PU0LNKFKmoUYvQbyuvWqOdaS1MfwHol1oPhaG0vAFnZ2lZB/BntXS0UV4lSbqTc3uz26cFTgoLZBRRRUFhRRRQAVxvxM8P3viDwusVgnmT284nEfdwFYED3+auyoq6c3TkproRUgqkXB9T5Mmhltp2hnieKVDhkdSCPqDT0r6f1LQdJ1hQNQ0+3uSOjSICw+h6ivn/4lWE+ha8lloGkWMlvNMtukkUssrJK2dsbZOAxwTjngV7NPNKf200eNUyup9hpnQeDvHUHhzR5bKe0lnPmF4yjAAZHQ5rmdSv5NU1K5vpgBJO5cgHge1er6Z8J9HisLYahJcS3YjXzikm1C+OcDHTPvW3aeAPDNngrpiSsOczMz5/AnH6VUMfhKcnUjF3f9dyZ4DF1IKnKS5V/XY8V0Hw7qHiLUI4LOFzHuHmTEfJGO5J/pX0fUcMENtEsUESRRqMKiKAB+AqSvNxmMeJknayR6WDwaw0Wr3bCiiiuM7Dn5f8AkoVp/wBgqb/0bFXQVz8v/JQrT/sFTf8Ao2KugoAKKKKACiiigAooooAKKKKACiiigAooooAKKKKACiiigAooooAKKKKACiiigAooooAKKKKACiiigAooooAKKKKACiiigAooooAKKKKACiiigAooooAKKKKACiiigAooooAKKKKACiiigAooooAKKKKACufX/kocn/YKT/0a1dBXPr/yUOT/ALBSf+jWoA6CqGt3smm6DqN9CFaW2tpJkDjIJVSRn24q/VbULKPUtNurGZmWK5heFyhwwDAg4z35pSvZ2KjbmV9jirDxzNDAbq+vLW/tjCrF7eze1EUrEBULSSFTnJ5yMYya0T47il01byy0u4u9qTPPHFPD+6ERAb5i+1uoxtJzW5faLbahpCadK0gSMJ5cgwWVl+63IIJ47gj2qpD4WtY7Jrd7q6mLQTQPI5UMwkOWOAoUYxwAAB6U+r7f1/X3Ex6XIZfFRj1BIF0q5e2aWKFroSRhVeRQwG0tuP3h0FR/8Jvpu4bo5kQW8c7yNgKgdlG0nP3huUkehHrVyPw3borh7q5l3XUdyC5QbSihVUYUfKAo68+9V7XwXpdrZ29qrXEkcKbD5rBjJl1clsjk5UfhxQ9tBS6WItR8Zw6YbM3OnzxpcAMS8sSFAWwMKWBc9yFBIyM9a0dW8Rafokyx30yRb4JJkMkioG2bcqMkZJ3cfSs278C2N5N5kl9fAGJIWXdG25UZmTlkLDBYjgjIxnNa+o6JZ6pMJLpN5EEkABCkAPtyRkHn5Rij/g/8AfUzE8Y2z61ZacbWRPtgXy3aWPILIXGU3b8YGN2MZq5deIYLSW6jaCZmt7m3tztxy0xUKRz0G4Z+hqnb+C7G21OG9S7uz5MiypEfL2h1TZknZuOR2LY9AKu6r4a0rWLq2u7q1T7XbSxyRXCqPMXY4cDJHQkc+xNNWvr3/AI+ZkN46W3trma90i4tBDci0QS3EIEs3XaDvwvHOWIFZOo+LdORY/EWnSxw3i2++a2lmQC8jVyrRjBw0ikEqwyO2cHjqLrwtZXVtcRGWZHlu/tiyjYWilxjKhlKkYyMMD1NRv4P06Wyktp5J5y9sbcyybC4BYsWHy4ByewAHGBSXmOVvsleDx5pVxHDKEnWN455JGZR+4WIfNvGcg8HjrxVrw54qtPEZuEgjMUsAVmTzY5Mq2dpyjEDoeDyKwtT8IwaNd3Gr2kdxeWtzJK+p2bNuMiSLtZkGOqjPyjqM9+vQeG9LtLCz+0WeoT30NwqtHJIUwEA4ACKo/Egk9yamN/tCfkbdUtXu5LDRb+8iCtJb28kqBuhKqSM+3FXar31pHqGn3NlKWWO4iaJyp5AYEHHvzTle2hUbcyvscRp/jmaK2F3fXlrf2xgDu1tZPaiGRioVC0jlTuJPPGMZrSHjqKfTkurLS7i7YCYzRxTw/uvKxu+bftb7wxtJzW3eaJbXuippcrSeUioEkGC6lcbW5BGeO4x7VVt/C9rDaeQ91dTMYZomkkKBmEuNxwqhRjAwAAB6U+rJXS5A/iwrexRppVy9s0kMT3IkjCo0oUqCpbcfvDOBTP+E300MA0cyoLdZ5JG2hUDOq7Sc9RuUn2Iq5D4ato43Rrq5lDXMVwC5QbfLChVGFHy/KOuT15qvbeC9MtrOG1V7h0iUqTIwYyZkWQlsjnlQPpxTe2n9af5hLy/rb/gkWpeM4dLS1kuLCdI5xuJeWJCqlsAhWYFz3woJAx61W1jTfBWk6olzqOjaRHdyrJdLcywxKzOhU8M2CWJYEfSrF74Fsb6XfJfXwBhEDKDG2UVmZBlkLDaWPQjIwDmr95aaZq+ryW04Mlzb2pVkKAqqSnryPvfu6XQOpTTxnavq+n2BtZE+3Knlu0seQWQuAU3b8YGN2MZq9d+IYLOW6jaCZjbzW8LbccmZlVSOegLDNUbfwTY22owXaXd2fIeORIj5e3eqbMk7NxyvUbsdwBV/VvDWl61cW9zd2qG6t5Y5IrhVHmKUcOACR0JHPsTTVr69/wCPn/TMd/HIt4LuW+0i4tBBcC1XzbiHEkxAO0HfgcHOWwKePiBo39mm8kkEeLd5hG00eXZGKsindhjkdiQeOea0LrwvZXdvdRtJMrz3QvBINpMUoULlQylcYHRgRyahbwdp0ti9tcSTzl7ZrcyybC+GYsWHy4U5PYADjApLzHK32RZfF9hBcJDLHMoPntI+AREsQJZm56HBx3pfDniuz8RvcRwIY5IVRyvmxyZRs7TlGIB4OQeRTo/CWmo9wzedL9olkklEj5DB1KlOnC4JwB6mp9E0CLRFlEd3c3G8Ko87YAijoAEVR+JyT3JqY3+0J+Rn+LteudFbS0gura0W7naOSe4tnnCgIWGFRlOSR61mp8QYbC2gXU1EkrFmMsYW3VoQ+1ZVjkfdg/3QWPGa6u70yG8vrG7keQSWTs8YUjBLKVOePQ1S1fw1bavexXbXNxbSoojcwbP3iA5CkspI5zyuDyeaavcbtbT+tf8isfFm3UPIbS7kWpkliS78yMq7RqzH5d24cKeoqO38ZRkv9v02ewULA4eaWNlKSlgGJVjgDYc5o12w0qxsVNze3UDtPNJAIdryvJKrKVRSp3HDHAx9azR4IPiGSG711ri3hjWBYtOilGCsTMymYgYdjuOQMAe55qlbQJWtpv/AF+hAnjKXxVNBa6XHdWdlcE/vsBbi4UOVPlAn5VGCS55A6DJBrQ0W80O81FfD8ejxwiwY3VuHeOQh0baXIDFkf5urYJyfetUeF7JJvOSWdJQxZHUqChMhc446ZJGOhHFQ6N4QstEvxdwXV1IVjkiRJdm1EdlYj5VBOCvBYk8nJPGFHz8/wDgEu/5f8EefF2m/b1sVbfdmeWAwI6mRdiMxYrnOCFwPqKNB8UW+vJeeXA0T2hG9fOjlBBGRgoxGfbORS3PhLTLos0gkDtNLKzrtDEyIyMM4zjDHH0FSaF4ct9BM7RXNxcSTKiu0wjGdowMBFVRx6CgOpRu/GUcGnfbIdMurgDT11FkVkUrEc5+8wGRjpUNz48s7G7t7W+tJLedxGZo2ni3QiRtqHG7L5P93OB1q63gzRhLqUlvb/ZTqNq1rcC3CqCCWJbp975jz+lPvPC1pd6nFfC4uYJFCLKsWzEwQ5UMSpYf8BK56HNN2uipWtp/W3/BID410syLFG3mzZlDxRyIXj8t9h3DORkniorzx1p9qkxWJ3dbo2sQeSOJZmCBiVZ2C4HIySMkcVPc+DNMuYDHuniYrMDLCVVz5rbid2M5B6elOuvCGn3EQWKSa2dHV4ZIwjGLCBMAOrKQVHcGod+n9a/8MJbv+v61Kmn6lb6x4u0vUbUkwXOjSyJnrgyxda6uuYt7RLHxrp1rG8jpFo8qBpG3McSxck9zXT1b3BBRRRSAKKKKACiiigAooooAKKKKACiiigAooooAKKKKACiiigAooooAKKKKACiiigAooooAKKKKACiiigAooooAKKKKACiiigAooooAKKKKACiiigAooooAKKKKACiiigAooooAKKKKACiiigAooooAK59f+Shyf9gpP/RrV0Fc+v8AyUOT/sFJ/wCjWoA6CiiigAooooAKKKKACiiigAooooAKKKKACuZuVk8Lag97CudEuG3XUQH/AB6uf+Wqj+4f4h2PzetdNSMoZSrAFSMEHoaABWV1DKwZSMgg5BFLXM25fwpfraSNnQrh8Wzn/lzkP/LMn/nmT909jx0xjpqACiiigAooooAKwdM+fxfrr/3Et4//AB0t/wCzVvVg6IM+IvEknY3MSj8IE/8Ar0Ab1FFFABRRRQAUUUjMFUsxAAGST2oAWsbUtdMN1/Z2mQfbtTYcxBsJCD/FK38I9up7Cqj6le+IXa30SRrexVts2psmd3qsAP3j23ngdsnpsabpdnpNr5FnCEUnc7E5aRj1ZmPLE+poAqaXoQtLg39/cG+1NwQbh1wIx/cjX+Bf1PcmteiigAooooAKKKKACiiigAooooA5+X/koVp/2Cpv/RsVdBXPy/8AJQrT/sFTf+jYq6CgAooooAKKKKACiiigAooooAKKKKACiiigAooooAKKKKACiiigAooooAKKKKACiiigAooooAKKKKACiiigAooooAKKKKACiiigAooooAKKKKACiiigAooooAKKKKACiiigAooooAKKKKACiiigAooooAK59f8Akocn/YKT/wBGtXQVz6/8lDk/7BSf+jWoA6CiiigAooooAKKKKACiiigAooooAKKKKACiiigDG1zULe3Bs720E9tPbSswJzv2jJTHuKzNP8RNbaTBBb6fLJJDandG1yZGWYSeWIixGT8wb5sdFzitzVdIg1eO3SdnVYZll+XHzYOdp9jxn6VQuvCOn3s07XLSvFPcLO8IbaCVBwuRg43Et16ml/X9f108x/1/X9dSaz8QJeajY2iW7KLqze63M3KFWVShGOuW/StmuNHhuz0/XLW20zWbvTbhYpjBCIkdTG7KzqpdTnDDdjORuPbFdiAQoBOTjr61WlhC0UU11LxsoYqSCAw6j3pAOrC8OqxvNclZSN+oMBkdQqqP6Vzp1nVUjFybiVltFNhOmeGnZWIf3bd5Q/4E1EXiG4t9Vkge7vZYhC1kJHtZFi85EzvEpXYWZg44P90dqP6/r8PvQ7d/6/r9Dv6KyPC999v8M6ZM9ys872kTStuBJYqCSce9a9NqzsIKpanf/wBmwRTGLfG08cTndjYHYKG9+SPzq7WVqlzYXbtoclyy3dzGSqxKXeMdnPBC4OMFuM0mBRg8Vefdm3FlhvtfkjMvWLDfvenTKNx9DnmqN7q9rrem2ceoadOqTahHA1sZmTKsNyMwwNwK4JU8ZyMnFaU3hKylijiWaaONLP7GAhGdnAJzjOcZGfc1Um8B6ehDaZcXGnMJI5QYsSDemdrYkDdmIprfX+v6/UDqERY0VEUKijCqowAPQU6oLOGa3tI4ri6e6lUfNM6qpb8FAH5Cp6QBRRRQAUUUUAFFFFABRRRQAUUUUAc/L/yUK0/7BU3/AKNiroK5+X/koVp/2Cpv/RsVdBQAUUUUAFFFFABRRRQAUUUUAFFFFABRRRQAUUUUAFFFFABRRRQAUUUUAFFFFABRRRQAUUUUAFFFFABRRRQAUUUUAFFFFABRRRQAUUUUAFFFFABRRRQAUUUUAFFFFABRRRQAUUUUAFFFFABRRRQAUUUUAFc+v/JQ5P8AsFJ/6Naugrn1/wCShyf9gpP/AEa1AHQUUUUAFFFFABRRRQAUUUUAFFFFABRRRQAUUUUAFFFFAGfrGkxaxZeQ8jwyowkguI/vwyDoy/4dxkVBo2qTTtJp2pKsWq2wBlVeFlXoJU9VP6HIPvr1k63o51OOGe1m+zalasXtbgD7p7qw7o3Qj+oFAGtRWbpOrrqFvIJ4/s15bt5d1bseY3xnj1UjkHuKnm1K3h+84H1OKaTewpSUVdsl+y25VlMEW1n8wjYMFs53fXIBzWdodwmr6Ms01rAqGaTbGq/L8rkA4PfjP1pW1+0U8Nn6Z/wrN0G+t9J0eCxkmEjRlyXCkA7mLf1q/Y1P5X9xh9cw97e0X3o3bLStO00ubCwtbXzPv+RCqbvrgc1bqlFqttN91wT6A5rH8i+8TuftQksdGyR9mztnuf8AfI+4n+yOT3x0qGmtGbRlGSvF3JLjVrvWLiSx0BgsaErPqbKGjjPdYx/G/wD46O+TxWlpekWukwusAZpZTumnkO6SZvVm7/yHarcEENrbxwW8SRQxqFSNFwqgdgBUlIoKKKKACiiigAooooAKKKKACiiigAooooAKKKKAOfl/5KFaf9gqb/0bFXQVz8v/ACUK0/7BU3/o2KugoAKKKKACiiigAooooAKKKKACiiigAooooAKKKKACiiigAooooAKKKKACiiigAooooAKKKKACiiigAooooAKKKKACiiigAooooAKKKKACiiigAooooAKKKKACiiigAooooAKKKKACiiigAooooAKKKKACufX/AJKHJ/2Ck/8ARrV0Fc+v/JQ5P+wUn/o1qAOgooooAKKKKACiiigAooooAKKKKACiiigAooooAKKKKACiiigDDv8AVLKPXl0x5US8eBZlVuDIuWHHrjB496wdTtru2LSiCa6BP/LIAn8s1xHxlYr4wsmUkMLFCCDyP3j1zmneOfEenhUj1KSWNeiTgP8Aqef1r1sPhpqCqU2tejPDx06VaTpVk9Ho1/kdrPr91CxDaPdJg4+cEf0pkXiG6kIC6RcP/uAn+lZlv8U9aUfvre0lPspX+tTyfE/V5FxFa2sZ9cFv611qliX9lfeea8Ng19t/d/wTrNOivb3DGxuLX3mAXH65/Suji1W1s9VsdNkuA13c5VYwckgKWLEdhxXj17458QXilTe+SpGCIEC5/HrT/AEkk3xD02SV2eRmkLMxySfLbqazr4GpKDnVa0T0X+Z1YOvQoTUKCb5mk2/8j32iiivCPpAooooAKKKKACiiigAooooAKKKKACiiigAooooA5+X/AJKFaf8AYKm/9GxV0Fc/L/yUK0/7BU3/AKNiroKACiiigAooooAKKKKACiiigAooooAKKKKACiiigAooooAKKKKACiiigAooooAKKKKACiiigAooooAKKKKACiiigAooooAKKKKACiiigAooooAKKKKACiiigAooooAKKKKACiiigAooooAKKKKACiiigArldQ1G20nxz9pvTJHDJpqorrC7gsJSSPlB7EV1VFAGD/wmWhf8/Uv/AICy/wDxNH/CZaF/z9S/+Asv/wATW9RQBg/8JloX/P1N/wCAsv8A8TR/wmWhf8/U3/gLL/8AE1vUUAYP/CZaF/z9Tf8AgJN/8TR/wmWhf8/U3/gJN/8AE1vUUAYP/CZaF/z9Tf8AgJN/8TR/wmWh/wDP1N/4CTf/ABNb1FAGD/wmWh/8/U3/AICTf/E0f8JloX/P1N/4CTf/ABNb1FAGD/wmWhf8/U3/AICTf/EUf8Jlof8Az9Tf+Ak3/wARW9RQBg/8Jlof/PzN/wCAk3/xFH/CZaH/AM/M3/gJN/8AEVvUUAYP/CZaH/z8zf8AgJN/8RR/wmWh/wDPzN/4CTf/ABFb1FAGD/wmWh/8/M//AICTf/EVznjD4pWXhqytb+1t2vrbztlyhjkidVI4ZSyhTz2PrXoNY+veF9J8TLaJq9t9phtZfOSFmIRmwQNyj7w56GgDwvx74q0vxjqtjqmkySNB9jWNhIhVkcO5IP5jpkV6J8PvCelQ+GbS/uLOC5urpfMLzIH2g9AAeBXJfGCCG28T2EEESRRJp6KiRqFVRvfgAdK7b4Xah9t8HQRE5e1laE89uo/Q16tZyWDg4s8qiovGTUkTWOkeHZtaubiS001XEht7e32oM7eGbb3JOe3QCtS78P6Z/wAfMEFvZ3Ma/JOkaqF/3h0I+tYdxplovgzUJzCizq00m4KAS4Y7ST1yDjFbuu28k+ko5QyeS6TSxH+NV+8Pr3HuBXNJvmVpPsdMUuV3iu5yPibTNL1fwfPrKQQQXtsdrvb42uwYKRxwQc5Brkfh5/yP2l/WT/0W9dD4y1S3tvD8ul2kisLm9Zsq2790uMc98nHPtXO/D4FvHemqGKkmUZHUfunr16SksJO+2tvSx49VxeLp230v63PeLjULO0nt4Lm6hiluX2Qo7gNI2M4Ud6s143b/AAt8R6Z8SbXXW1661O2k3o907oLi2BU8gOrKR24A69q9H/4R+9/6GjWfyt//AI1Xzh9IbtFYX/CP3v8A0NGs/lb/APxqj/hH73/oaNY/K3/+NUAbtFYX/CP3v/Q0az+Vv/8AGqP+Efvf+ho1n8rf/wCNUAbtFYX/AAj97/0NGs/lb/8Axqj/AIR+9/6GjWfyt/8A41QBu0Vhf8I/e/8AQ0az+Vv/APGqP+Efvf8AoaNZ/K3/APjVAG7RWF/wj97/ANDRrP5W/wD8ao/4R+9/6GjWfyt//jVAG7RWF/wj17/0NGs/lb//ABqj/hHr3/oaNZ/K3/8AjVAG7RWF/wAI9e/9DRrP5W//AMao/wCEevf+ho1n8rf/AONUAMl/5KFaf9gqb/0bFXQVj6foAstU/tGfU76+uBCYFNyY8IhYMcBEXqVHXPStigAooooAKKKKACiiigAooooAKKKKACiiigAooooAKKKKACiiigAooooAKKKKACiiigAooooAKKKKACiiigAooooAKKKKACiiigAooooAKKKKACiiigAooooAKKKKACiiigAooooAKKKKACiiigAooooAKKKKACiiigAooooAKKKKACiiigAooooAKKKKACiiigAooooAKKKKAPDvjP8A8jdZ/wDXgv8A6Mes34d+LYPDWoXEV8XFlcqCxUZKOOhx78j8q2PjRaTjxBYXhib7O1qIhJjjeHYkZ9cEV5ovWvocPTjVwyhLZnz2IqSpYlzjuj0WbxadQnvrr7dBZ6cJvPisSm+SaRSCMjsGIBPOK9dtZzPYQXDgZkhWRgOnKgmvmVOle1W3jvSLfwhA73aterbCPyFU7t4GPyrDHYR8sVTVzfA4tc0nUdjzvXptNuZZJ4JpzOzn9z5IWOMZPAOcmrHw8/5H7S/rJ/6LeudPTmuo+G1rNP45spYo2aOAO8rDooKMoz+JFeriIqGHkr9H+R5WHk54iLt1X5nvVFFFfIH14UUUUAFFFFABRRRQAUUUUAFFFFABRRRQAUUUUAFFFFABRRRQAUUUUAFFFFABRRRQAUUUUAFFFFABRRRQAUUUUAFFFFABRRRQAUUUUAFFFFABRRRQAUUUUAFFFFABRRRQAUUUUAFFFFABRRRQAUUUUAFFFFABRRRQAUUUUAFFFFABRRRQAUUUUAFFFFABRRRQAUUUUAFFFFABRRRQAUUUUAFFFFABRRRQAUUUUAFFFFABRRRQAUUUdBQBBeWVrqFs9teW8c8D/ejkUMDXA6l8HtEupGksbm4sif4P9Yg/A8/rW9p/jJLtLW4udLurKxugxhuppIirbVZuQrFh8qseR2q1p3iOS/ubcNpF9b2l1n7NdSbCsnG4ZUEsmQCRuA9OpFa061Sm/cdjOrQhU+NXPPpPgzdq37nV4WH+3ER/ImnQ/B+9z+91W3A/2Y2Nei/8JDajxDcaPJHIksFt9o81sbGXjIHOcjIPTvVO08baNPpcF/dTGxSd3VEuPvEKcbjjOB0OfeumOZYi2kvwRyPLcNfWP4s5+y+EmmRMGvb+4uAP4UURg/zNdtpmkafo1t9n0+0jt4+pCDlj6k9SfrVO+8U6PYNeRy3iNPaQtPLEuS21Rk47Z5HFPtvEukXU9rbpexi4uYhLHE3DEEZH445x1rCriqtbScr/ANf8A6KWGo0fgjY1qKqadqdlq1ubiwuEnhDFd6Zxkfzq3WBuFFFFABRRRQAUUUUAFFFFABRRRQAUUUUAFFFFABRRRQAUUUUAFFFFABRRRQAUUUUAFFFFABRRRQAUUUUAFFFFABRRRQAUUUUAFFFFABRRRQAUUUUAFFFFABRRRQAUUUUAFFFFABRRRQAUUUUAFFFFABRRRQAUUUUAFFFFABRRRQAUUUUAFFFFABRRRQAUUUUAFFFFABRRRQAUUUUAFFFFABRRRQAUUUUAFFFFABRRRQAUUUUAFB5FFFDA5TQ/A2m6boYtprS2F/JbvDPdQr8x3ZyQSM96ZaeHNTbVtLnvU00DTF2Lews5muEClQpQgBBzk/M/I98jrqKd9bg9Tk9d8LXup39xc2t1DA0skQ3HO4RbSko46Eq3HuBms/VPBmr3Vs9pbXUKW8guAVW6lhCb2ypIQfvBjgoxA+ua7yip5VsHW5yJ8N6m19elHtoLeeF1JjuJCJGZNo3REbVIPJdTk46Dmqlv4N1Aa1b3c7QGPzI7iXF9PhJFj24WIbUbkD52xxkbTXc0UW1uKxn6HYPpeiWdjIULwRBGKdCfatCiimMKKKKACiiigAooooAKKKKACiiigAooooAKKKKACiiigAooooAKKKKACiiigAooooAKKKKACiiigAooooAKKKKACiiigAooooAKKKKACiiigAooooAKKKKACiiigAooooAKKKKACiiigAooooAKKKKACiiigAooooAKKKKAP//Z;strokeColor=none;strokeWidth=102;spacingTop=-3;spacingBottom=-3;spacingLeft=-3;spacingRight=-3;rounded=0;html=1;whiteSpace=wrap;" parent="1" vertex="1">
          <mxGeometry width="944" height="751" as="geometry" />
        </mxCell>
        <mxCell id="wNx7z_Cr1dYoNexV8k2--2" value="" style="rounded=0;whiteSpace=wrap;html=1;strokeWidth=0;strokeColor=none;" vertex="1" parent="1">
          <mxGeometry x="620" y="370" width="170" height="200" as="geometry" />
        </mxCell>
        <mxCell id="wNx7z_Cr1dYoNexV8k2--3" value="Cервис зрителей" style="rounded=1;whiteSpace=wrap;html=1;" vertex="1" parent="1">
          <mxGeometry x="530" y="306" width="130" height="64" as="geometry" />
        </mxCell>
        <mxCell id="wNx7z_Cr1dYoNexV8k2--4" value="Сервис авторизаций и пользователей" style="rounded=1;whiteSpace=wrap;html=1;" vertex="1" parent="1">
          <mxGeometry x="330" y="310" width="130" height="60" as="geometry" />
        </mxCell>
      </root>
    </mxGraphModel>
  </diagram>
</mxfile>
